<svg xmlns="http://www.w3.org/2000/svg" width="512" height="512" viewBox="0 0 512 512"><path fill="#EFEAEB" d="M421.351 423.375c-47.694-21.26-111.054-19.617-164.213-16.789-58.314 3.102-120.031 10.51-173.455 29.308-10.521 3.704-11.035 18.053 0 21.618 18.362 5.934 37.654 9.169 57.287 10.693 38.265 4.107 78.14 3.818 115.667 3.016 53.351-1.149 118.396-3.59 164.714-26.228 10.285-5.024 11.006-16.716 0-21.618z"/><path fill="#FDBAC1" d="M191.941 209.836c0-1.2-.627-1.97-1.443-2.396.069-3.038.017-6.111 0-9.118v-4.317c0-.224-.077-.389-.114-.587a.8.8 0 0 1 .016-.089c.538-3.572-4.703-5.223-5.558-1.528-.286 1.259-.611 2.506-.913 3.761a2.863 2.863 0 0 0-1.223.725c-.88.882-1.76 1.779-2.624 2.688-.085.074-.175.104-.253.192-.122.132-.204.289-.322.426-1.683 1.817-3.26 3.729-4.446 5.913a2.75 2.75 0 0 0-.334 1.082 6.379 6.379 0 0 0-1.736-.807c-.045-.098-.114-.173-.155-.275a2.345 2.345 0 0 0-.599-.805c-.265-1.09-.603-2.158-.803-3.266-.204-4.405-.509-8.804-1.084-13.187-.469-3.558-5.803-3.826-5.758 0 .016 1.518.077 3.044.159 4.57-.481.226-.913.57-1.206 1.174-.399.825-.75 1.673-1.137 2.504-.102.13-.224.216-.301.375-2.001 3.896-4.1 7.688-5.758 11.693-2.42-2.451-4.882-4.864-7.502-7.121a137.755 137.755 0 0 0-3.264-4.414c-.033-.057-.061-.106-.098-.159 0 .002-.008.004-.008.008-.155-.195-.285-.395-.44-.591-.09-.122-.208-.167-.31-.261-.13-.448-.245-.9-.387-1.347a2.82 2.82 0 0 0-.941-1.379c-.163-.499-.31-1.002-.498-1.5-1.279-3.439-6.438-2.131-5.554 1.528.143.613.257 1.232.403 1.846-.538.607-.798 1.433-.403 2.474.611 1.602 1.284 3.172 1.968 4.739.094.446.196.891.293 1.337-.599.633-.978 1.493-.823 2.559.754 5.025 1.068 10.037 1.207 15.068-.62 5.768-.065 11.426.13 17.27.089 2.718 2.983 3.533 4.915 2.038 2.339-1.813 4.702-3.419 7.151-4.796.44.754 1.186 1.32 2.327 1.32h7.865c1.068 0 1.793-.501 2.25-1.182a66.28 66.28 0 0 1 4.401-.22c.065-.008.126.008.188-.004.856-.017 1.711-.029 2.571-.033 1.219-.004 2.025-.591 2.437-1.394a46.935 46.935 0 0 1 1.878-.045 2.803 2.803 0 0 0 1.508-.473c.448.236.917.412 1.374.473 2.429.31 4.755 1.125 7.196 1.438.599.073 1.153-.126 1.618-.481.855 3.354 6.129 1.826 5.477-1.724-1.435-7.808-1.337-15.792-1.337-23.702z"/><path fill="#A5989A" d="M192.772 179.442c6.504-.9 6.28-11.347-.831-11.347-6.259 0-7.176 8.107-2.894 10.681-.383.222-.758.457-1.035.819-4.401 5.836-8.183 12.072-12.307 18.085-2.282-7.61-4.173-15.27-5.456-23.153-.082-.495-.302-.827-.534-1.131 5.062-2.076 4.328-11.06-2.241-11.06-6.683 0-7.302 9.238-1.972 11.117-.338.304-.636.656-.807 1.074-3.395 8.36-6.015 17.014-9.458 25.345-5.575-7.362-10.722-15.025-16.993-21.836 3.109-3.132 1.854-9.941-3.875-9.941-4.038 0-5.803 3.386-5.452 6.492-.542 1.66.563 3.078 1.805 4.063.534.705 1.341 1.076 2.217 1.133 1.324 20.117 1.675 40.27 4.307 60.276.481 3.627 6.243 3.676 5.754 0-2.274-17.303-2.869-34.722-3.839-52.124 5.098 6.392 9.65 13.226 14.76 19.619 1.101 1.377 3.79.999 4.523-.583 3.191-6.899 5.615-14.087 8.167-21.233 1.451 6.438 3.228 12.783 5.281 19.105.823 2.543 3.777 2.653 5.261.689 4.234-5.616 7.89-11.614 11.838-17.419 2.641 15.681 1.597 31.775 1.507 47.629-.016 3.712 5.738 3.708 5.762 0 .098-18.523 1.361-37.289-2.983-55.459-.089-.374-.325-.574-.505-.841z"/><path fill="#DDD7D8" d="M304.229 118c.636-2.27.167-4.918-2.156-6.691-4.205-3.207-10.929-1.689-15.656-.882-2.388.408-4.743.952-7.095 1.526-16.662.998-33.403.961-50.034 2.561-.057-.053-.118-.092-.175-.145-2.433-2.329-7.499-2.351-9.039 1.164-4.915 11.19-3.33 27.766 2.017 40.357 1.051 9.185 4.47 18.574 12.368 18.081.774.74 1.605 1.453 2.567 2.097 2.258 1.51 4.735 1.793 7.16 1.383-.452 1.052-.656 2.258-.224 3.688.106.355.265.638.392.964-.123.581-.236 1.16-.392 1.734-.48 1.795.074 3.753 1.239 5.202.016 4.077.065 8.698-.522 12.072-.065.389-.049.746-.049 1.108-.269.375-.563.75-.807 1.11-2.38 3.482.737 8.992 4.967 8.666 7.86-.607 17.642 1.135 24.887-2.665 1.149.491 2.453.538 3.696.255 2.896.026 5.611-1.795 5.244-5.507-.081-.789-.208-1.573-.317-2.357.546-4.839-.024-9.674-1.618-14.324.664-1.196.998-2.569.876-3.896.791-1.575.962-3.441.48-5.004 12.963-1.567 23.945-7.107 22.169-21.196-.037-.277-.18-.473-.245-.729 1.011-5.159 1.207-10.993 1.052-16.908.27-7.609-.202-15.246-.785-21.664zM374.382 305.039c2.934-2.86 1.597-9.674-3.966-10.285-8.104-.893-16.32-1.075-24.21-3.297-4.743-1.34-6.964-3.798-7.645-6.951 9.878-4.483 19.414-6.948 30.416-7.743 3.269-.236 5.575-2.449 5.754-5.758.636-11.476-2.054-29.479-15.762-33.024-8.306-2.147-16.691-.229-25.135.22-13.008.689-25.954 1.716-38.982 1.858-.469.008-.823.175-1.23.265-2.608-1.145-5.266-2.176-8.036-2.938-7.168-1.976-10.213 9.136-3.057 11.105 30.213 8.325 47.034 44.373 46.871 73.615-.162 28.607-43.97 55.593-69.813 56.131-4.026.081-6.169 3.586-5.55 7.286.236 1.438.481 2.877.717 4.319.094.542.306.953.497 1.386-11.577.366-22.959 1.165-33.953 2.485-22.764-2.046-49.402-2.091-71.387 2.164a162.43 162.43 0 0 0-6.023.953c-5.322-.68-10.628-1.479-15.909-2.555-5.754-1.178-8.786 5.518-6.194 9.096-.627.868-1.088 1.907-1.092 3.301v.351c0 .024.012.04.012.064.314 5.51-.232 11.134.913 16.578a4.877 4.877 0 0 0 1.536 2.645c8.77 21.618 66.252 9.955 82.459 9.499 1.292-.037 2.314-.493 3.174-1.108 25.2 1.189 52.642 4.768 76.827-.538 10.159.921 20.318 1.805 30.494 2.258 13.411.599 48.167 5.518 56.398-9.939 1.153-2.164.864-4.315-.22-5.929.493-.514.994-.979 1.479-1.541 1.684-1.952 1.74-4.951.648-7.164.244-.655.383-1.32.317-1.947-.477-4.54-.953-9.092-1.434-13.636-.236-11.264-1.288-22.486-1.32-33.66.9-9.404 1.988-18.794 3.268-28.179.261-1.862-.289-3.411-1.206-4.625.122-1.459.229-2.918.358-4.377.024-.33.062-.66.078-.994.464-5.322.904-10.648.978-15.999.022-1.367-.398-2.503-1.07-3.392z"/><path fill="#DDD7D8" d="M276.181 256.351c-23.317-17.894-49.659 1.427-62.536 22.486-14.25 23.302-10.652 56.024 6.015 76.717 6.985 8.681 19.128-3.626 12.209-12.208-11.483-14.264-11.312-33.424-5.958-50.066 5.208-16.203 25.249-34.524 41.553-22.014 8.839 6.781 17.425-8.232 8.717-14.915z"/><path fill="#DDD7D8" d="M286.218 292.113c-.024 0-.054.004-.078.004-7.05-1.895-16.842 3.729-21.842 7.128-10.799 7.335-21.842 16.821-25.274 29.915-.497 1.902-.362 3.602.163 5.065-.028.704-.065 1.414-.016 2.103-.905 4.051.701 8.598 5.884 9.935 23.48 6.044 46.602-10.18 54.288-32.29 3.272-9.414-2.608-21.2-13.125-21.86z"/><g fill="#A5989A"><path d="M285.276 273.723c-6.011-3.777-12.714-5.501-19.479-5.611-14.246-2.967-27.294 4.083-36.097 15.412-.175-.184-.391-.289-.591-.432-1.471 2.566-2.917 5.143-4.405 7.701-3.7 8.599-6.284 17.498-6.74 26.961.428 2.673 1.182 5.338 2.437 7.959 5.11 10.705 13.342 20.615 24.642 25.146 22.996 9.234 45.881-1.043 56.053-23.211 8.972-19.536 2.224-42.585-15.82-53.925zm-43.701 67.646c-8.044-4.21-13.154-11.757-15.343-20.119.175-.366.273-.799.249-1.308-.913-18.073 7.515-32.075 23.766-39.973.285-.139.464-.326.66-.514 18.778-3.455 41.94 6.146 44.646 27.177 3.435 26.725-32.005 46.232-53.978 34.737zM404.366 200.604c-8 8.042-15.763 16.535-21.321 26.49-1.817 3.244 3.158 6.147 4.972 2.906 5.33-9.546 12.747-17.613 20.416-25.325 2.624-2.635-1.451-6.706-4.067-4.071zM425.784 209.94c-10.86 4.35-20.819 10.616-30.196 17.562-2.942 2.184-.081 7.182 2.91 4.969 8.924-6.614 18.46-12.832 28.818-16.982 3.399-1.36 1.915-6.932-1.532-5.549zM429.473 245.923c-9.255-2.299-18.538-4.267-28.114-4.422-3.717-.061-3.708 5.697 0 5.754 9.071.146 17.82 2.042 26.586 4.217 3.602.893 5.134-4.661 1.528-5.549z"/><path d="M390.445 284.803c-1.223-1.279-2.466-2.277-3.762-3.081-2.09-3.007-5.069-4.82-8.577-5.754 1.613-10.432 1.842-20.929-3.269-30.546-6.594-12.417-25.738-11.749-37.417-11.602-40.551.505-81.151.114-121.73.464-.033-25.65 27.327-18.814 44.72-18.02 17.213.785 46.162-8.955 50.376 15.207.636 3.653 6.186 2.101 5.554-1.528-2.975-17.046-15.872-20.381-30.184-20.502.008-.116.057-.199.057-.324-.068-6.231-.803-12.415-1.197-18.621.276-.416.48-.9.48-1.53-.008-2.946-.171-5.799-.823-8.682-.021-.098-.081-.151-.105-.241 5.844-.326 13.154-1.021 17.384-5.102 6.06-5.842 6.467-13.118 6.748-21.188.53-15.119-.244-30.288-.896-45.39-.016-.359-.175-.599-.293-.88 4.479-2.549 6.96-6.748 8.492-11.51.726-1.812 1.361-3.674 1.817-5.62 1.084-4.065 1.483-8.513 1.349-13.075.013-5.457-.509-10.895-1.21-15.828-1.186-8.346-5.326-13.14-10.986-15.856-4.499-2.706-10.106-3.653-16.121-3.814-13.333-.356-27.319-.12-41.105.43-5.179-.633-10.354-1.314-15.563-1.697-13.105-.955-26.023.656-31.296 13.958-.188.475-.286 1.043-.453 1.544-.102.165-.24.291-.318.489-5.049 12.662-4.43 28.807.518 41.639.954 2.294 1.98 4.556 3.252 6.685.53.758 1.051 1.522 1.585 2.282 1.284.695 2.555 1.412 3.875 1.997 1.047.64 2.091 1.29 3.24 1.793.436.523.999.952 1.822 1.062.236.033.48.037.717.069-.513.457-.815 1.149-.717 2.091 2.893 26.846-8.256 62.953 25.188 67.597v4.369c0 .022.012.035.012.057.069 7.842.497 15.709-.546 23.507-16.361-.161-31.174 3.046-31.133 24.654 0 .016.008.028.008.041-6.309.069-12.625.093-18.933.211-21.28.387-44.883-.057-59.928 11.846-.627.143-1.263.261-1.883.444-4.393 1.275-6.178 4.845-6.043 8.395-2.449 3.831-4.442 8.301-5.73 13.733-3.541 14.914-2.359 31.166-2.555 46.37-.326 24.959 3.594 49.72 2.983 74.699-.428.453-.717 1.068-.754 1.863-.721 17.656-5.571 39.075 13.297 46.06.171.403.424.693.717.913.334-.065.652-.146 1.043-.102 0 0 0-.004.008-.004.823-.311 1.589-.074 2.229.375 12.71 2.966 26.732 1.271 39.581.525 20.897-1.211 41.924-1.215 62.85-1.609 24.259-.457 48.521-.693 72.785-.791 17.343-.065 35.103 2.254 52.372.791 22.992-1.948 19.854-33.848 14.096-49.802a2.963 2.963 0 0 0-1.397-1.646c5.575-30.551 3.806-61.627 3.663-92.516 4.401-1.104 8.391-2.71 11.521-4.78 1.564-1.035 1.913-3.126.585-4.519zm-132.904-74.427c-3.5-.161-7.139-.394-10.778-.554.949-8.138.636-16.257.591-24.455v-3.117c10.587.308 21.23-1.119 31.81-1.856a2.87 2.87 0 0 0-.04 1.42c.114.503.139 1.001.212 1.502a2.826 2.826 0 0 0-.318 1.333c.106 8.181 1.349 16.288 1.442 24.469 0 .151.065.261.086.401-8.05.3-16.195 1.167-23.005.857zM217.076 99.053c.212-.9.257-1.878-.155-3.013-2.706-7.513-2.942-15.18-3.048-23.073-.245-19.006 14.059-18.055 27.804-19.055 10.706-.782 21.505 1.49 32.263.943 14.613-.742 30.555-3.396 33.04 16.806 1.166 9.493 1.639 24.416-12.991 26.133-7.913.927-15.929 1.031-23.871 1.991-16.668 2.015-36.876 5.903-53.042-.732zm21.516 15.751c.513.01 1.067.03 1.565.036 14.458.169 30.759-.042 46.056-2.223v.065c0 1.55 1.02 2.416 2.188 2.669.159 6.343.709 11.088-7.013 13.022-5.778 1.451-12.282.98-18.203 1.579-5.285.534-10.494 1.491-15.804 1.764-10.64.542-8.896-9.586-8.667-16.157.017-.289-.069-.513-.122-.755zm-16.577 35.112c-.603-11.939 1.435-23.87.151-35.795-.045-.428-.273-.709-.464-1.021 3.81.85 7.747 1.259 11.492 1.485-.114.297-.224.603-.232.974-.188 5.291-2.795 16.487 3.578 19.668 8.305 4.141 17.865 1.541 26.647.483 8.912-1.074 18.211-.082 26.39-4.344 6.06-3.154 4.613-11.789 4.556-17.245-.012-1.264-.705-2.058-1.585-2.461 3.26-.607 6.472-1.288 9.568-2.135.848 17.881 3.684 38.322-.416 55.783-3.113 13.269-39.585 10.695-49.813 11.131-20.051.852-28.894-6.897-29.872-26.523zm34.695 102.38c33.228 2.812 59.382 31.854 62.683 64.468 2.999 29.597-30.849 44.459-54.826 47.055-70.246 7.604-80.613-106.208-10.236-112.064.732.26 1.507.468 2.379.541zm-88.519 117.977c1.671-31.736 5.42-63.425.872-95.088.293-10.99.53-21.98.566-32.967 0-.583-.171-1.039-.412-1.438 5.852-.163 11.488-.13 16.243-.313 15.954-.62 31.998-.844 48.049-.941-28.31 11.728-47.902 41.35-45.987 72.85 2.319 38.126 33.998 67.12 71.004 68.909 32.152 1.557 76.685-21.134 77.907-57.458 1.271-38.062-24.573-72.227-59.365-84.346 7.637.021 15.272.045 22.881.045 15.444 0 30.967-.184 46.407.069 10.615.175 21.626 2.542 25.733 13.671 2.458 6.655 1.594 14.797.399 21.888-7.245-.253-15.559 1.883-22.579 4.327-3.134.742-6.093 1.875-8.814 3.439-.563.24-1.138.489-1.639.713-.717.322-1.096.812-1.304 1.341-.934 1.125-1.32 2.853 0 3.9 7.954 6.312 22.046 8.138 34.435 6.341.179 30.082 1.964 60.429-3.513 90.169-.139.77.04 1.418.35 1.968-15.672 5.502-34.1 1.822-50.266 1.605-21.063-.281-42.051.823-63.171.069-28.994-1.026-58.09-.13-87.162.636.033-.212.098-.391.082-.636-.318-4.604-.518-9.209-.717-13.818v-4.935zm-6.479-129.127v5.392c0 .799.302 1.394.721 1.85v.501c-1.389-1.793-3.533-3.04-6.475-3.073-4.817-.049-9.711-.473-14.568-.456 6.043-2.608 13.166-3.696 20.322-4.214zm-40.681 48.221c.257-9.345 1.039-19.17 4.739-27.784 1.875 1.907 4.633 2.901 8.012 1.915 7.042-2.041 14.955-.484 22.176-.407 2.942.028 5.086-1.174 6.475-2.934v46.04c-.623 22.38-.994 44.76-.098 67.132-.281 5.51-.542 11.011-.607 16.513-12.714.317-25.424.583-38.118.611 1.011-33.693-3.512-67.312-2.579-101.086zm252.641 127.485c-.855 19.193-19.894 16.194-34.312 15.306-34.011-2.106-68.485-.456-102.541.15-28.619.51-57.291 2.421-85.898 2.511-3.651.012-7.258-.273-10.848-.738.481-.497.835-1.112.771-1.87-.729-8.554 3.553-25.318-5.742-30.551-1.296-.729-2.515-.358-3.326.448-1.104.139-2.119.782-2.347 1.988-1.72 9.189-1.133 18.33-.008 27.491-5.938-2.824-6.96-8.566-7.449-15.331-.481-6.691.183-13.366.627-20.041 46.252-.045 92.638-2.877 138.87-1.234 21.761.774 43.514-.86 65.217-.077 14.898.537 30.339 2.6 44.65-2.201 2.263 7.799 2.695 16.096 2.336 24.149zm-27.637-129.816a123.004 123.004 0 0 1 4.564-1.761c7.922-2.119 17.074-1.679 25.208-1.418.448.432 1.027.766 1.806.823 1.793-.032 3.333.42 4.755 1.101.147.224.302.432.429.676-10.208 4.291-26.802 5.18-36.762.579z"/><path d="M334.43 253.734c-14.85 0-14.85 23.028 0 23.028 14.857.001 14.857-23.028 0-23.028z"/></g></svg>