<svg xmlns="http://www.w3.org/2000/svg" width="512" height="512" viewBox="0 0 512 512"><path fill="#EFEAEB" d="M399.284 368.415c-47.694-21.264-111.056-19.617-164.215-16.789-58.314 3.101-120.031 10.505-173.455 29.308-10.522 3.7-11.035 18.053 0 21.614 18.362 5.933 37.653 9.173 57.287 10.692 38.265 4.112 78.14 3.823 115.667 3.016 53.351-1.145 118.399-3.586 164.716-26.227 10.285-5.02 11.007-16.712 0-21.614z"/><path fill="#FDBAC1" d="M183.748 190.264c-1.528-4.864-5.938-6.979-10.762-6.111-11.329 2.029-19.715 9.972-27.197 18.279-.061.041-.118.063-.175.104-.599.451-1.112.946-1.658 1.422-.285-5.358-.778-10.699-1.345-16.033.354-.925.611-1.93.611-3.113-.008-3.421-.281-6.813-1.288-10.106-.351-1.141-.954-2.134-1.663-3.034-2.481-5.171-9.022-7.382-13.933-2.771-11.374 10.681-9.564 24.351-6.361 38.065.538 8.03 1.801 16.07 3.208 23.817-.045.065-.118.123-.159.179-6.308 8.804 7.331 17.134 14.222 9.855.342-.228.66-.521.978-.798 2.131.994 4.735.937 7.469-.974 3.835-2.677 7.836-5.098 11.667-7.777a9.092 9.092 0 0 0 2.918-3.317c2.754-1.488 5.485-3.012 8.117-4.739 11.378-7.443 19.752-18.937 15.351-32.948z"/><path fill="#DDD7D8" d="M446.376 204.023c-15.95 16.885-29.243 35.873-41.501 55.531-10.88 14.022-21.003 28.574-31.149 43.18-14.002 20.163-32.096 36.883-45.282 57.535a8.628 8.628 0 0 0-3.732 2.14c-.131.139-.294.236-.429.375a10.188 10.188 0 0 0-3.455-1.377c-.077-2.576-1.26-5.208-3.989-7.173-26.299-18.888-51.454-35.216-84.157-39.116-.289-.037-.55-.021-.819-.028-14.882-5.424-29.952-5.778-45.331-12.396-10.249-4.409-19.169 10.664-8.827 15.118 16.276 7.01 34.112 5.84 50.107 13.912 1.687.853 3.325 1.785 4.98 2.698 5.607 3.676 11.353 7.106 17.176 10.407 13.419 8.745 26.508 17.972 41.406 24.471a8.793 8.793 0 0 0 1.249 1.594c6.464 6.594 8.852 8.443 16.357 14.01 2.58 1.924 5.078 2.025 7.181 1.084 4.173 1.98 9.87.412 11.956-3.586.399-.252.807-.497 1.19-.807a63.126 63.126 0 0 0 7.779-6.81c2.986-2.873 3.142-6.337 1.821-9.214.505-.782 1.011-1.572 1.536-2.339 6.817-7.294 12.897-15.208 18.627-23.424l.098-.122c6.598-7.6 13.265-15.167 19.193-23.346 5.192-7.152 10.237-14.373 15.298-21.586 1.614.285 3.285-.105 4.564-1.769.31-.396.604-.782.913-1.182l.008-.004c9.182-11.858 18.118-23.109 24.304-36.949.48-1.06.521-2.168.379-3.244 9.271-13.863 19.304-27.175 30.8-39.334 5.164-5.462-3.072-13.728-8.251-8.249z"/><path fill="#DDD7D8" d="M376.599 173.142c-2.01.214-3.713 1.381-4.756 2.914-2.314-.416-4.801 1.088-6.117 2.894-7.665 10.554-15.272 21.133-22.363 32.089-.021.033-.017.069-.037.102-4.45.18-7.363 5.852-3.912 9.886 1.035 1.207 2.083 1.83 3.261 2.185 10.692 6.218 19.715 13.621 27.856 23.099 3.366 3.92 10.062.734 9.96-4.124-.122-5.688-1.508-9.543-5.241-13.836-.978-1.121-2.144-2.03-3.325-2.914 1.813-7.918.856-15.394-2.481-22.542.143-1.483.273-2.973.347-4.47.073-1.44-.44-2.592-1.215-3.513 1.182-1.645 2.355-3.291 3.537-4.935.808.587 1.63 1.147 2.307 1.875a5.832 5.832 0 0 0 2.307 1.438c1.577 1.104 3.166 2.18 4.711 3.366.366.287.75.367 1.133.534.086.085.163.179.253.269.138.33.191.656.407.996 3.158 4.921 6.569 9.662 9.731 14.585 2.307 3.594 7.844 3.953 10.069 0 1.834-3.254 3.012-6.32 3.676-9.212 17.231-14.802-17.207-32.059-30.108-30.686zM362.755 268.319c.253-.713.266-1.524-.167-2.323-2.449-4.556-5.15-8.993-8.391-12.995 1.247-1.182 1.423-3.362-.436-4.58-8.937-5.868-16.695-11.842-27.727-12.07-.2 0-.379.057-.563.089-12.307-7.174-24.544-16.4-39.311-15.65-.974.049-1.821.64-2.351 1.426-7.278-3.162-14.728-5.037-22.731-2.29-1.434.489-2.232 2.201-2.029 3.619-13.651 6.577-22.315 22.969-29.622 36.343a120.72 120.72 0 0 0-3.932 5.771c-1.589 1.483-2.335 2.331-3.154 3.398a47.234 47.234 0 0 1-3.39 3.154c-1.646 1.377-.84 3.603.668 4.548.367.587.856 1.092 1.589 1.296 2.266.656 4.54 1.304 6.81 1.947 1.585.457 3.093-.537 3.59-2.037 1.614-4.89 3.325-9.274 3.994-14.389.024-.184-.028-.339-.049-.51.22-.399.416-.823.636-1.215a338.941 338.941 0 0 0 6.789-10.416c.334-.521.424-1.019.428-1.5.501-.799 1.056-1.561 1.516-2.388.525-.938.387-1.928-.069-2.755 6.133-9.096 13.773-16.702 24.255-18.046.204.033.403.057.603.098 4.801 1.785 11.464 5.349 16.554 4.605 8.82 3.254 17.117 10.271 14.591 20.658-.571 2.359 1.523 3.9 3.41 3.55 1.337.244 2.783-.293 3.191-2.001.073-.306.113-.615.188-.925 6.797-.994 13.464-2.156 20.139-3.847.017 0 .024-.016.045-.024 4.841-.627 9.719-1.019 14.739-.839.024 0 .037-.013.065-.013.66.416 1.32.84 1.972 1.276-.301.896-.154 1.907.759 2.747 1.72 1.569 3.228 3.309 4.649 5.102-.542.856-.726 1.98-.24 3.057a40.493 40.493 0 0 0 1.862 3.651c-.176.396-.453.786-.893 1.182-.693 1.141-.506 2.221.105 3.023-1.148 1.969-1.984 4.133-2.347 5.453-.986 3.635 4.646 5.175 5.632 1.548.342-1.271.762-2.485 1.332-3.676.184-.366.388-.713.607-1.067.302.146.619.195.929.195.351.326.624.652 1.003.97 2.267 1.952 6.146-.415 4.752-3.15z"/><path fill="#DDD7D8" d="M251.63 264.949c-2.368 1.5-2.881 3.48-3.965 5.908a2.954 2.954 0 0 0-.09 2.258c-.685 2.029.872 4.972 3.386 3.97.017 0 .021-.017.037-.024.986.008 2.009-.408 2.673-1.313 1.084-1.459 1.251-3.228 1.948-4.865a2.987 2.987 0 0 0 .074-2.197c.893-2.424-1.487-5.367-4.063-3.737zM297.733 280.101c-.184-.188-.391-.31-.587-.457-.008-.008-.024-.016-.032-.024-.53-.383-1.08-.701-1.695-1.06-1.618-1.011-3.162-.216-3.89 1.068-.767 1.267-.713 3.023.943 3.969.574.362 1.153.726 1.728 1.084 2.849 1.78 5.861-2.258 3.533-4.58zM349.788 277.598c-1.12-.631-2.567-.664-3.451.449a333.795 333.795 0 0 0-9.312 12.294c-3.586 2.168-6.907 4.422-9.78 7.249-.603-.855-1.638-1.34-2.958-.847-.734.379-1.517.379-2.34 0-2.347-.538-3.912 1.394-3.59 3.59.249 1.662.729 3.194.974 4.861.123.815.645 1.369 1.305 1.695 1.019 2.233 1.858 4.572 2.877 6.781 1.011 2.172 3.545 1.699 4.764.179.347-.143.656-.358.917-.66.611-.041 1.238-.277 1.821-.872 5.803-5.97 10.705-12.718 14.731-19.968 2.494-3.431 5.004-6.846 7.637-10.18 2.139-2.713-1.239-6.413-3.595-4.571zM348.753 159.7c-1.769-2.598-4.665-4.309-7.534-5.536-.028-.024-.065-.047-.094-.069-.008.006-.008.014-.013.021-.232-.098-.46-.222-.688-.314-2.11-.846-3.492.938-3.505 2.765a2.492 2.492 0 0 0-.216 1.298c-.094-.033-.175-.096-.272-.123.518-1.269.143-2.84-1.142-3.647-9.136-5.762-17.648-10.22-27.258-2.917-1.137.861-1.455 2.011-1.21 3.034-.375.678-.236 1.447.089 2.17-.419.742-.77 1.516-1.128 2.288-2.271 1.897-4.197 4.183-5.604 7.166-.481 1.023-.383 1.944-.008 2.688-.27.589-.53 1.19-.787 1.793-1.426-.29-3.061.579-3.386 2.052-.718 3.185-2.873 5.397-4.575 8.052v.004c-.398.24-.758.546-.97.97a558.342 558.342 0 0 1-1.597 3.191c-2.413 3.393-4.776 6.801-7.674 9.833a2.83 2.83 0 0 0-.628 1.039c-1.332.573-2.461 1.133-3.476 2.07-.465.354-.889.772-1.21 1.369-.021.033-.013.061-.029.094a37.877 37.877 0 0 0-2.433 2.235c-1.772 1.758-.505 5.051 2.062 4.979 4.019-.112 9.215-.012 13.135-1.027.831.2 1.744.033 2.539-.801 3.991-4.181 7.043-8.994 10.014-13.924 2.119-.399 3.725-3.01 1.655-4.789-1.68-1.447-3.558-2.544-5.457-3.623.958-1.402 1.887-2.775 2.682-4.212.444.126.933.182 1.491.072 1.512-.302 2.808-.728 3.949-1.561.244-.11.501-.21.741-.328 1.386-.024 2.486-.68 3.415-1.64.652.616 1.557.954 2.592.607 4.955-1.638 9.368-4.14 13.766-6.777.269.016.529.037.823-.026 3.553-.817 6.642-3.024 9.809-4.807.424.497.966.839 1.609.959.831 1.151 1.129 2.494 1.418 4.161v3.68c0 1.759 1.806 3.358 3.586 2.818 1.166.195 2.352-.239 2.865-1.386.163-.106.33-.189.473-.34 1.838-1.962 3.154-4.236 3.614-6.706a140.96 140.96 0 0 1 1.704-2.637c1.583-2.374-.924-4.609-3.137-4.218zM280.86 130.578a32.619 32.619 0 0 0-5.835-2.918c-4.67-2.074-8.981-1.084-11.977 3.144-20.009 28.25-38.905 57.695-63.323 82.438-17.205 17.433-36.757 32.879-50.237 53.275-26.341-24.698-66.016-45.149-98.201-24.112-9.405 6.145-.644 21.313 8.834 15.119.505-.334 1.035-.555 1.553-.864 1.878 1.875 4.65 2.796 8.028 1.744 11.907-3.716 29.141 5.51 39.573 10.302 12.559 5.759 27.294 12.813 36.504 23.424.913 1.052 1.903 1.776 2.914 2.237 2.893 3.798 8.7 5.741 13.358 1.65 14.703-12.918 26.476-28.681 37.703-44.769 8.989-9.234 18.036-18.419 26.476-28.161 9.902-11.422 17.829-24.287 25.848-37.104 12.066-13.252 23.566-26.934 31.92-43.434 2.136-4.212 1.183-9.502-3.138-11.971z"/><g fill="#A5989A"><path d="M263.795 248.021v.97c0 3.766 5.835 3.766 5.835 0v-.97c0-3.765-5.835-3.765-5.835 0zM281.301 251.909v.97c0 3.766 5.836 3.766 5.836 0v-.97c0-3.765-5.836-3.765-5.836 0zM280.804 261.062c-5.131 3.04-10.302.358-14.56-2.918-2.983-2.298-5.881 2.779-2.947 5.037 6.003 4.613 13.529 7.025 20.449 2.918 3.235-1.92.302-6.965-2.942-5.037zM320.203 258.714h-.978c-3.766 0-3.766 5.836 0 5.836h.978c3.758 0 3.758-5.836 0-5.836zM325.061 275.952v1.238c0 3.766 5.836 3.766 5.836 0v-1.238c-.001-3.765-5.836-3.765-5.836 0zM320 279.24c-5.469-1.736-6.28-6.667-5.632-11.772.469-3.729-5.371-3.685-5.836 0-.994 7.86 2.021 14.89 9.919 17.396 3.594 1.145 5.127-4.495 1.549-5.624zM381.46 209.121c-3.762 0-3.762 5.833 0 5.833 3.766 0 3.766-5.833 0-5.833zM358.647 163.523c.42-1.194.261-2.643-.998-3.596-17.666-13.428-33.184-16.314-54.757-11.962-.966.193-1.797 1.108-2.037 2.036-5.168 19.919-19.221 35.928-32.31 51.221-.782.911-.844 1.938-.554 2.842-.628 1.708.236 4.051 2.615 4.085 17.107.25 34.249 2.51 50.064 9.324 1.472.636 3.102.44 3.989-1.043 10.27-17.184 21.582-33.601 35.526-48.031 1.812-1.875.378-4.385-1.538-4.876zm-38.048 40.235c-.97 1.948-1.943 3.888-2.918 5.836-.109.181-.126.354-.195.536a115.84 115.84 0 0 0-8.456-2.708c1.785-2.518 3.636-4.984 5.437-7.482 2.307.819 4.662 1.822 6.471 3.391-.107.146-.246.244-.339.427zm4.364-4.639c-3.064-2.651-7.005-4.151-10.795-5.451-1.287-.444-2.587.302-3.288 1.341-2.486 3.645-5.302 7.054-7.783 10.697-.073.105-.078.208-.135.315a160.68 160.68 0 0 1-2.759-.638c4.055-6.821 8.565-13.36 12.796-20.071.436-.695.439-1.414.261-2.077.041-.13.109-.232.135-.369.028-.281.13-.505.216-.746-.42-.135-.84-.271-1.256-.418a3.556 3.556 0 0 0-1.1-.676c-.44-.167-.856-.34-1.284-.509 8.843-2.688 17.657-5.534 25.808-9.862.041 3.708.229 7.408 1.056 11.042.167.731.542 1.218.994 1.55-4.341 5.25-8.742 10.454-12.866 15.872zm17.124-21.142c-.478-3.201-.489-6.453-.493-9.697 0-1.024-.452-1.744-1.084-2.207-.266-1.856-2.196-3.515-4.279-2.255-3.603 2.176-7.396 3.937-11.271 5.493a2.872 2.872 0 0 0-.216-1.418c.118-.51.269-1 .317-1.557.11-1.19-.807-2.229-1.857-2.678-.049-.077-.188-.23-.485-.523a38.45 38.45 0 0 0-1.422-1.779c-1.798-2.043-4.854-.292-4.984 2.062-.163 2.867-2.172 4.89-3.492 7.278-.469.85-.473 1.67-.204 2.369-.024.1-.064.18-.089.275-.033.118-.009.212-.024.322-4.829 1.496-9.695 2.889-14.467 4.448l-.017.008c-3.223.016-4.441 4.978-.962 5.614 2.36.432 4.679 1.024 6.993 1.613-3.676 5.658-6.952 11.6-11.198 16.851-.473.589-.632 1.227-.644 1.85-5.65-.797-11.339-1.379-17.077-1.591 11.072-13.014 21.813-26.374 28.609-42.199 8.175-18.996 35.485-6.149 48.688 3.063-3.073 5.157-6.622 9.974-10.342 14.658z"/><path d="M418.042 190.229c-.017-.028-.013-.057-.029-.085-8.264-14.564-26.634-21.192-42.519-22.331-10.709-.772-10.273 5.049-15.159 13.56-7.417 12.908-17.833 24.245-28.587 34.438-1.031.978-1.088 2.168-.607 3.138-.518 1.198-.33 2.637 1.198 3.386 15.163 7.486 28.578 17.456 40.254 29.689 1.116 1.174 2.991 1.076 4.124 0 16.903-16.088 34.019-36.743 42.56-58.656.59-1.509-.139-2.605-1.235-3.139zm-34.023 45.648c-.049-.033-.064-.073-.113-.106-11.395-6.689-7.625-17.745-6.989-27.928.265-.139.534-.299.774-.548.062-.063.126-.138.184-.202 1.092-.057 2.14-.685 2.51-2.058.363-1.351.889-1.75.188-1.219.094-.153.232-.289.313-.448 5.123 5.711 8.48 13.786 15.584 17.486-3.991 5.205-8.234 10.205-12.451 15.023zm15.918-19.717c-.073-.041-.118-.098-.196-.122-1.532-.587-2.86-1.467-4.059-2.522 2.918-1.858 5.566-3.346 7.278-6.212 0-.004.008-.008.008-.008v-.004c.253-.426.546-.789.75-1.284.998-2.396-1.728-4.034-3.781-3.427.301-1.121.587-2.249.863-3.38.677-2.722-2.824-5.072-4.873-2.836-2.543 2.775-4.435 6.95-5.257 10.923-1.28-1.973-2.479-3.99-3.75-5.756-3.602-5.023-8.215-8.737-14.409-9.809-.505-.087-.981-.02-1.435.112-.105-.008-.207.008-.31.008-2.648-.85-5.518 2.575-3.04 4.753 6.251 5.483 2.025 17.331 1.875 24.556-.171 8.338 3.684 14.758 10.489 19.085a197.134 197.134 0 0 1-5.526 5.787c.669-.676-10.285-9.878-11.165-10.62-7.931-6.718-16.773-12.284-26.007-16.999 11.72-11.329 22.091-23.833 30.225-38.002 5.464-9.513 12.029-6.997 21.895-4.108 9.186 2.69 18.656 8.326 23.465 16.793.021.039.057.053.081.094-3.317 8.072-7.922 15.714-13.121 22.978zM221.133 184.695c-19.821-18.134-44.215-30.334-69.558-38.923-.921 1.74-1.862 3.466-2.754 5.218 24.817 8.301 48.803 20.094 68.184 37.829 2.77 2.535 6.903-1.581 4.128-4.124zM231.83 168.162c-20.954-17.657-45.241-30.538-71.493-37.949a360.234 360.234 0 0 0-3.093 5.226c25.86 7.083 49.871 19.495 70.462 36.847 2.852 2.408 7.004-1.697 4.124-4.124zM245.823 154.093c-24.067-16.076-46.725-36.5-75.454-41.863.171.634.167 1.343-.31 2.105-.697 1.131-1.394 2.259-2.094 3.386 28.647 4.707 51.252 25.605 74.912 41.409 3.142 2.095 6.06-2.961 2.946-5.037zM188.728 192.313c-2.808-20.157-27.669-11.791-39.585-.625 0-9.533-.827-21.459-7.364-25.925-10.465-7.152-18.656-2.639-24.279 7.775-6.023 11.147-3.944 25.447-2.51 37.399 1.316 10.913 2.763 25.765 10.612 34.282.758.823 1.646.986 2.461.815-.75 2.078.726 4.833 3.293 3.827 22.371-8.788 61.492-28.012 57.372-57.548zm-6.508 11.172c-4.906 19.803-34.381 33.624-51.916 40.551.342-.929.285-2.005-.579-2.942-9.637-10.459-9.743-33.397-10.24-46.604-.094-2.573.012-5.135.167-7.7.334-5.426 8.794-29.479 19.715-14.931 5.249 6.987 3.839 20.171 3.855 28.511.008 2.7 4.229 4.252 5.436 1.471 6.919-15.973 40.029-24.43 33.562 1.644z"/><path d="M464.615 201.741a91.145 91.145 0 0 1-7.352-3.829c-1.43-1.489-2.901-2.922-4.494-4.274.248-.778.411-1.567.632-2.352.188-.377.399-.737.591-1.114.354-.693.37-1.355.232-1.96.488-2.18.867-4.376 1.034-6.612 1.476-1.039 2.066-3.684.114-5.141-40.213-30.101-111.982-69.496-161.779-40.3-.84-.44-1.671-.917-2.48-1.453-.228.273-.448.554-.685.823-37.702-28.212-93.347-46.749-140.443-38.167-.701-.312-1.54-.308-2.404.332-21.712 16.043-33.269 41.584-46.716 64.221-17.767 29.895-41.382 55.835-59.349 85.605-1.011 1.679-.123 3.256 1.227 3.953-.208 1.589.681 3.354 2.75 3.354h.799a39.183 39.183 0 0 0-3.802 4.361c-1.182 1.564.11 3.789 1.74 4.286 38.888 11.862 76.424 27.409 112.329 46.456.322.497.754.945 1.447 1.189 57.923 20.53 108.649 56.028 161.692 86.249 1.52.868 2.942.22 3.732-.884.465-.221.905-.547 1.23-1.133 11.027-19.813 25.897-36.876 40.702-53.922 13.672-15.737 26.243-32.344 39.948-48.037 23.061-26.39 51.342-53.432 60.641-88.357.32-1.171-.162-2.75-1.336-3.294zM294.93 142.112c25.185-15.662 56.139-9.527 82.626-.697 25.714 8.568 50.311 22.132 72.194 38.145-.098.275-.204.542-.221.874-.13 2.716-.619 5.401-1.255 8.074-31.655 61.566-79.528 111.901-122.146 165.831-2.494-2.526-4.825-5.033-6.993-7.657a2.22 2.22 0 0 0-.88.298 560.934 560.934 0 0 0-14.483-7.653c-35.459-23.122-79.792-41.354-120.681-39.251-5.314-.578-10.652-.938-15.991-1.174 19.145-27.466 45.445-48.534 66.281-74.592 10.697-13.382 21.186-26.894 30.991-40.944 8.941-12.812 15.51-27.154 27.745-37.335 1.377-1.147 1.137-2.663.216-3.696.013-.018.028-.039.045-.057.742.36 1.627.413 2.552-.166zM154.249 295.296c-25.665-25.774-63.351-46.574-100.503-44.862-.432-.815-1.21-1.442-2.417-1.442h-3.847c16.447-26.918 36.773-51.285 54.284-77.508 15.412-23.073 25.555-51.354 48.44-68.478.334.062.693.09 1.084.017 45.258-8.34 99.008 10.047 135.423 36.995-43.469 52.472-79.896 111.247-132.464 155.278zm29.026 10.624c40.005 4.523 79.113 19.01 115.09 37.169 5.024 3.089 9.906 6.386 14.683 9.8-.106.009-.196.041-.302.049.505.302 1.043.547 1.557.84 2.616 1.899 5.159 3.875 7.693 5.868-1.296 1.654-2.6 3.305-3.879 4.972-.644.008-1.32-.208-1.936-.754-.086-.077-.188-.143-.273-.221-1.483-.33-2.967-.88-4.421-1.503a305.558 305.558 0 0 1-7.385-3.822c-.407-.232-.843-.489-1.227-.701-7.958-4.531-15.585-10.099-24.028-13.713a2.78 2.78 0 0 1-1.019-.729c-.726-.31-1.423-.685-2.144-1.002-18.297-10.555-36.814-20.534-57.031-25.616l-.073-.024c-14.699-4.059-30.074-5.771-44.797-9.739a97.486 97.486 0 0 1 9.492-.874zm199.909 2.082c-11.309 13.811-21.504 28.872-33.012 42.613-1.524 1.862-3.094 3.676-4.675 5.484-.325.367-.647.73-.981 1.093-7.734 8.729-16.113 16.83-25.755 23.659-1.019.722-1.972.628-2.73.159-.985.249-2.11.151-2.767-.619a56.411 56.411 0 0 0-2.686-2.95c-.44.439-.97.688-1.516.778-1.043-.619-2.087-1.223-3.13-1.842-.131-.314-.322-.591-.334-.979-.009-.053-.013-.105-.021-.163a9.787 9.787 0 0 1-.229-.122 3.341 3.341 0 0 1-1.581-.008c-1.707-1.007-3.423-2.014-5.135-3.02-.574-.429-1.145-.885-1.731-1.3-.986-.506-1.984-.979-2.975-1.468-22.582-13.13-45.5-25.664-68.854-37.344-.017-.253-.114-.497-.069-.75-8.281-4.205-16.577-8.219-25.013-11.928 3.59.298 7.127.763 10.607 1.398 2.144.477 4.299.933 6.43 1.467 11.207 2.796 21.402 7.946 31.565 13.211 4.283 1.622 8.517 3.383 12.73 5.204 18.542 10.221 36.531 21.997 55.456 30.534 1.247.563 2.425.236 3.265-.468.069.305.188.599.158.921a130.539 130.539 0 0 0 5.759-4.471c19.629-18.591 33.248-42.25 49.426-63.877 8.852-10.754 17.608-21.577 26.109-32.567.583-.705 1.129-1.406 1.716-2.107 6.895-8.468 13.753-16.96 20.469-25.566 6.838-9.316 12.922-19.041 17.38-29.489 2.188-3.662 4.287-7.388 6.357-11.127.021.024.024.049.049.071 2.519 2.585 4.809 5.379 7.237 8.048-22.452 33.485-45.969 66.327-71.519 97.525z"/><path d="M368.42 262.104c-8.024-16.52-27.018-26.17-43.261-32.716-20.099-8.101-42.392-14.76-64.278-14.434-.66.008-1.162.236-1.594.538-1.23-.538-2.82-.44-3.842.904-15.196 20.076-29.561 40.794-46.22 59.702-.685.782-.835 1.654-.68 2.461-.188 1.569.701 3.358 2.747 3.488 39.239 2.552 80.566 17.637 107.82 46.798 1.092 1.166 3.02 1.089 4.124 0 .379-.375.726-.773 1.101-1.157 1.76.196 3.912-1.279 3.537-3.626-.004-.025-.013-.05-.017-.065 15.872-17.066 27.523-37.067 39.594-57.002.306-.51.395-.999.391-1.468.814-.839 1.225-2.093.578-3.423zm-108.822-41.583c.366.171.79.277 1.283.269 17.8-.269 35.605 4.581 52.334 10.261 8.093 2.749 17.233 6.294 25.677 10.948-.188.342-.399.664-.583.994-.811-1.704-3.02-2.669-4.612-.929-1.349 1.475-2.274 3-3.012 4.56-1.353-.909-3.456-.62-4.283.888-.379-.24-.807-.428-1.341-.468-8.997-.685-16.182 2.542-20.938 7.987.106-2.917.017-5.839-.554-8.761-.058-.293-.188-.538-.326-.766.859-.46 1.504-1.235 1.397-2.347-1.593-17.028-37.566-27.028-48.349-15.887-1.292.668-2.465 1.5-3.549 2.445 2.279-3.066 4.557-6.138 6.856-9.194zm77.72 52.472c.106 3.925-.452 7.914-1.634 11.382-.933-.33-2.009-.302-2.963.477-5.338 4.356-12.909 9.096-19.987 5.999-5.131-2.25-7.657-7.841-8.803-12.976-3.219-14.393 6.504-26.113 21.129-24.996.049.004.082-.017.131-.017.008 1.166.668 2.298 2.013 2.828.909.363 1.712.412 2.389.245.13.53.244 1.059.432 1.614.566 1.654 2.07 2.103 3.415 1.85 1.564 2.185 2.637 4.972 3.26 8.021 0 .138.045.261.065.399.13.685.253 1.377.334 2.094-.653.998-.473 2.184.219 3.08zm-37.017 12.47c-.229-.146-.432-.302-.722-.387-2.139-.656-4.331-.893-6.54-.994 1.769-2.417 3.432-4.919 4.865-7.552.099.954.221 1.924.399 2.894.385 2.037 1.093 4.075 1.998 6.039zm-57.045-40.115a69.79 69.79 0 0 0-7.905 17.906 41.754 41.754 0 0 0-2.482 11.729c-.021.154-.061.305-.077.464-.037.253.008.473.024.709-.033.921-.159 1.813-.123 2.763-5.457-.945-10.929-1.739-16.382-2.232 10.481-12.217 20.135-25.078 29.732-37.996-1.075 2.142-1.968 4.391-2.787 6.657zm8.223 17.026c1.214 3.655 3.366 7.065 6.243 10.09-.105.118-.236.188-.334.338-2.237 3.443-6.696 4.075-11.129 4.193a1506.11 1506.11 0 0 1 5.22-14.621zm22.984 29.015a184.398 184.398 0 0 0-25.779-8.938c5.204-.42 10.098-1.658 13.367-6.259.79.563 1.512 1.174 2.375 1.683 3.619 2.119 7.661 3.113 11.704 3.154-1.651 3.252-2.196 6.737-1.667 10.36zm-7.889-19.019c-9.006-5.286-11.912-14.03-9.813-22.213 3.154-2.298 6.308-4.593 9.422-6.944.118-.049.22-.114.334-.163.563-.229.945-.599 1.255-1.011.48-.351.953-.705 1.438-1.051.371-.163.795-.245 1.157-.424 2.551-.204 5.114-.342 7.694-.31 3.509 1.271 6.932 2.861 10.452 4.181 1.936 1.736 3.612 3.675 4.855 6.031a2.584 2.584 0 0 0 1.414 1.247c-.11 1.271-.244 2.531-.473 3.765-3.579 13.314-12.519 25.812-27.735 16.892zm48.16 43.949c-5.289-4.841-11.271-8.949-17.266-12.845-4.707-3.064-9.656-5.774-14.709-8.301.208-.11.416-.199.604-.362 1.784-1.573 3.472-3.301 5.109-5.103.204.041.375.122.611.122 1.851.005 3.678.017 5.495.212-.578.538-1.161 1.052-1.728 1.614-2.271 2.258.146 5.249 2.841 4.874 3.101-.433 5.974.424 8.871 1.296 1.923 2.774 3.423 5.799 4.075 9.312.358 1.964 2.73 2.522 4.282 1.744a96.132 96.132 0 0 0 3.379-1.749c2.054 4.349 3.77 8.848 4.931 13.505-1.621-.211-3.503-1.58-6.495-4.319zm14.711-2.543c-1.21 1.476-2.176 2.641-3.064 3.651-1.336-4.801-3.19-9.45-5.358-13.937.338-1.027-.053-2.249-.705-3.081-.855-1.092-1.895-2.037-2.999-2.909 3.618.017 7.147-.921 10.465-2.552.102.502.204.995.302 1.492.375 1.874 2.738 2.641 4.282 1.744 4.561-2.649 7.657-7.584 9.328-13.346 1.879.872 4.458 1.927 6.292.603.31-.228.546-.501.774-.77a9.45 9.45 0 0 0 1.463-.628c-6.39 10.271-13.049 20.345-20.78 29.733zm32.968-49.727c-2.226 3.672-4.426 7.347-6.646 11.015.583-4.246-.485-8.998-3.362-12.575a2.272 2.272 0 0 0-1.752-.893c.647-1.227 1.198-2.539 1.532-4.047.032-.155.017-.31.028-.465.566-1.548.917-3.251 1.039-5.098 3.798 3.464 7.05 7.363 9.422 11.781-.082.106-.188.159-.261.282z"/></g></svg>