<svg xmlns="http://www.w3.org/2000/svg" width="512" height="512" viewBox="0 0 512 512"><path d="M365.885 463.376c-26.736-27.682-79.151-25.754-114.24-24.955-24.709.562-52.534 1.857-78.812 7.11-20.706.208-41.134 2.01-59.973 11.716-4.949 2.547-7.183 8.945-5.752 14.133.713 2.592 1.654 5 2.801 7.245-2.243 6.247-.252 13.994 8.028 16.104 4.157 1.06 8.36 2.014 12.574 2.926 26.278 12.935 66.86 10.986 89.287 10.399 45.545-1.206 101.975-4.172 143.553-25.021 7.379-3.699 7.852-14.155 2.534-19.657z" fill="#EFEAEB"/><path d="M333.933 174.041c-20.738 45.779-36.843 93.586-52.481 141.296-13.318 40.661-30.186 80.43-42.207 121.552-6.119-18.774-11.437-37.919-17.05-56.525-11.526-38.24-22.497-76.645-34.479-114.742-21.025-66.861-37.423-135.355-63.518-200.527-1.155-2.875-5.866-1.624-4.696 1.294 25.483 63.645 42.006 130.489 62.065 195.933 11.711 38.196 23.116 76.473 34.561 114.746 6.718 22.462 13.066 45.661 20.75 68.155-2.5 9.108-4.755 18.285-6.634 27.56-.615 3.064 4.075 4.369 4.699 1.296 1.408-6.952 3.032-13.843 4.807-20.685 2.372 6.572 4.843 13.089 7.535 19.467 1.204 2.848 5.915 1.597 4.696-1.292-3.645-8.647-6.911-17.527-9.986-26.513 11.812-42.25 29.312-82.83 42.882-124.525 15.825-48.624 32.142-97.409 53.263-144.031 1.286-2.838-2.911-5.316-4.207-2.459z" fill="#8C7E82"/><path d="M369.728 13.783c-3.406-5.587-9.584-7.553-15.855-6.624a4.54 4.54 0 0 0-1.19.353c-1.227-.74-2.559-1.257-4.066-1.261-1.867-.008-3.163.917-4.026 2.221-5.416-1.345-11.325-.556-16.7.607-1.602.35-2.461 1.314-2.836 2.465-23.562-.738-47.15 10.328-66.154 27.572-1.473.12-2.749 1.023-3.152 2.969-.297.334-.56.664-.723 1.002-.297-.019-.55-.108-.893-.067-7.354.964-14.717 2.066-21.858 4.132-1.494.43-2.343 1.53-2.737 2.787-3.211-1.074-6.428-1.53-9.772-1.082-3.317-1.225-6.991-1.997-10.191-.613-.962.412-1.571 1.078-2.04 1.813-21.164-5.744-47.54 2.946-66.299 16.51l-2.388.723c-1.198-.705-2.661-.823-4.138.259-5.361 3.937-6.999 5.306-11.958 9.835-.037.037-.047.08-.088.126-1.229-.271-2.526-.104-3.537.517-1.628.611-2.942 1.995-2.83 4.059.214 3.763.416 5.1 1.202 8.115-.622.63-1.251 1.261-1.795 1.977-2.786 3.655 1.432 10.131 5.583 6.732.295-.238.566-.511.858-.756l.021.026c.067-.087.145-.146.212-.234.098-.085.2-.173.299-.261 1.058.467 2.248.5 3.352-.069l.041.039c.037.029.075.033.102.063.346.563.709 1.157 1.133 1.83.047.363.039.705.195 1.108 2.298 5.826 5.166 11.062 8.407 16.076.057.644.234 1.312.664 1.989a60.313 60.313 0 0 0 8.283 10.367c.931 1.18 1.872 2.366 2.826 3.556.934 1.157 2.117 1.675 3.303 1.769 16.622 12.142 38.118 11.921 58.365.055 9.902-5.807 15.952-14.705 19.815-24.887 3.831-4.531 5.813-10.014 6.718-15.878.516-.505.952-1.102 1.184-1.909 2.243-7.973 2.431-16.261.206-24.267-.094-.353-.285-.583-.438-.868-.006-.027-.002-.049-.008-.078-.002-.041-.024-.061-.032-.102.057-.017.108.008.165-.013 5.261-1.403 10.921-2.44 16.363-2.795.548-.057 1.019-.222 1.459-.419a56.486 56.486 0 0 0 1.567 2.045c.434.532.978.896 1.559 1.18 1.012 4.623 2.634 8.72 4.71 12.365.616.043 1.231.245 1.785.778 2.781 2.692 5.411 5.51 7.967 8.387a134.11 134.11 0 0 1 7.138 6.893c9.745 5.118 21.579 7.058 33.49 6.235 19.08 2.188 38.281-4.167 50.686-22.441.823-1.206.905-2.382.538-3.376 7.951-11.435 10.123-26.115 1.948-43.062a4.83 4.83 0 0 0 1.022-1.504c3.499-4.844 5.96-11.338 2.538-16.969zm-142.585 59.51c-.949 11.054-2.41 22.007-6.298 32.315-.254.216-.475.457-.744.665-1.74 1.298-2.103 3.213-1.642 4.88-.646 1.33-1.298 2.663-2.042 3.969-13.849 24.249-44.726 24.685-63.559 8.851-5.53-9.581-9.819-19.54-13.376-30.011.656-.715 1.104-1.67 1.066-2.932-.114-3.729.819-7.19 1.885-10.724 2.763-1.632 5.966-2.485 9.102-3.025 4.136-.719 3.771-5.493 1.076-7.562 16.435-10.01 37.531-16.337 53.97-11.159.491.432 1.047.796 1.754.945.662.139 1.263.277 1.885.416 5.049 2.248 9.564 5.683 13.183 10.711.97 1.355 2.302 1.817 3.623 1.793.036.289.078.575.117.868zm87.498 19.364c-19.312-2.261-38.758-14.902-48.403-31.643-.047-.082-.116-.112-.165-.184-.454-3.063-.707-6.284-.555-9.825a3.966 3.966 0 0 0-.482-2.111c.039-.43.12-.854.143-1.288a4.82 4.82 0 0 0-.238-2.108c25.037-22.814 59.877-34.846 89.951-15.924.114.408.199.815.456 1.231 21.034 34.323-9.626 58.904-40.707 61.852z" fill="#FDBAC1"/><g fill="#A5989A"><path d="M193.659 54.888c-12.657-.161-25.274 5.133-35.83 11.689-8.165 5.069-18.232 13.077-19.886 23.063-1.304.027-2.692 1.139-2.317 2.806 5.453 24.428 14.171 48.477 43.583 46.723 24.075-1.438 43.304-21.275 48.481-43.776 5.604-24.366-10.278-40.191-34.031-40.505zm26.424 50.15c-6.944 17.305-25.687 28.805-43.852 29.895-24.685 1.475-31.535-22.407-35.93-41.761.884-.232 1.671-.911 1.75-2.054.75-10.5 15.151-19.265 23.312-23.884 8.653-4.895 18.523-7.462 28.401-7.93 10.46-.505 21.897 3.352 27.545 12.512 5.952 9.643 2.68 23.493-1.226 33.222zM336.178 16.702c-24.1-4.395-57.146 11.528-71.499 30.194-.079.102-.098.212-.159.314a2.087 2.087 0 0 0-.434 1.243c-.363 22.621 13.762 38.385 35.277 43.74 20.563 5.125 48.196-.858 58.987-20.465 10.933-19.866 1.207-50.759-22.172-55.026zm18.289 52.944c-8.077 18.083-34.508 21.521-51.672 18.756-20.485-3.309-34.221-18.55-34.277-39.192 13.146-16.516 36.042-26.056 56.715-28.344 27.323-3.029 39.279 26.287 29.234 48.78z"/><path d="M334.58 5.337c-13.17 2.007-25.986 4.646-38.439 9.527-14.917 5.84-28.285 15.115-41.615 23.868a2.04 2.04 0 0 0-1.559-.133c-6.901 2.083-13.749 4.261-20.367 7.127-.322-.267-.713-.479-1.214-.528-21.111-2.097-42.611 1.068-63.067 6.282-19.373 4.933-39.722 12.965-54.284 27.148-1.3-.295-2.792.392-2.604 2.081.717 6.257 2.427 12.343 3.307 18.58.183 1.276.947 2.064 2.26 2.15 2.985.195 5.88.855 8.843.609 7.955 31.323 32.113 53.345 65.459 42.642 32.299-10.375 55.633-40.718 50.14-74.975 3.407-1.047 6.916-2.078 10.469-2.084.638 0 1.111-.242 1.453-.589 19.444 26.303 44.785 45.405 79.089 36.278 15.273-4.059 31.61-13.287 36.691-29.304 2.592-8.17 2.522-15.587 1.517-24.022-1.023-8.562-4.251-20.805 3.023-27.409.835-.76.811-1.675.371-2.404.395-.363.651-.889.64-1.581-.377-19.691-27.39-15.207-40.113-13.263zm35.697 13.368c.009.33.082.611.196.864-.013.006-.021.006-.024.012-8.354 7.587-5.453 20.644-4.197 30.514 2.42 19.175-3.786 34.314-21.224 43.803-15.958 8.68-35.771 10.273-52.45 3.113-15.677-6.734-27.391-20.952-37.064-34.455-1.237-1.722-3.661-.837-4.087.697-4.495.08-8.935 1.542-13.199 2.83-1.61.483-1.795 2.144-1.139 3.258-.012.178-.051.351-.012.544 5.707 31.996-15.736 58.16-44.3 69.592-31.996 12.8-55.615-9.407-62.948-39.524-.273-1.147-1.161-1.567-2.056-1.51-.5-.514-1.196-.852-2.068-.703-2.182.375-4.582-.145-6.883-.483-.813-4.876-1.95-9.701-2.671-14.591 14.222-14.436 34.267-21.765 53.444-26.969 19.393-5.259 40.207-7.957 60.315-6.207.371.964 1.27 1.63 2.486 1.078 6.516-2.946 13.289-5.135 20.117-7.213.642.638 1.599.919 2.59.275 21.688-14.157 43.067-28.016 69.192-32.152 10.534-1.666 45.637-11.08 45.982 7.227z"/></g><path d="M315.313 318.654a79.988 79.988 0 0 1-3.411 2.348c-.195-.266-.469-.514-.717-.771-.559-2.555-1.227-5.131-2.14-7.759-3.68-10.611-15.045-16.858-22.612-24.316a7.63 7.63 0 0 0-1.602-1.206c8.048-2.347 14.768-7.147 17.046-16.108.452-1.801-1.275-3.488-2.979-2.999-.746-.27-1.602-.172-2.311.631-.909 1.04-1.695 2.095-2.625 3.032a2.162 2.162 0 0 1-.171.032 2.83 2.83 0 0 0-.722-.04c.013-.024.029-.049.041-.073.958-2.262-1.002-4.426-3.333-3.334-4.557 2.136-9.131 4.401-13.76 6.431a460.843 460.843 0 0 0-13.541 2.355c-11.384-.563-22.76-1.182-34.164-.607-11.897-3.048-23.823-6.332-35.938-5.859-.795-.074-1.575-.176-2.376-.217a2.118 2.118 0 0 0-1.453.498c-1.756.187-3.515.432-5.281.807-.173.036-.308.146-.45.236a1.928 1.928 0 0 0-.762-.253 1.847 1.847 0 0 0-.534-.065c-.014 0-.024-.008-.041-.004-.014 0-.026.004-.041.004a2.277 2.277 0 0 0-.491.065c-.619.077-1.21.184-1.811.465-.163.061-.31.15-.465.236-.277-.143-.55-.294-.829-.437-2.37-1.186-5.102 1.879-2.953 3.818.167.155.336.236.501.375a.009.009 0 0 0-.008.008.193.193 0 0 1 .057.033c.707.57 1.473.97 2.347 1.165 1.143.587 2.256 1.231 3.187 2.07.451.407.939.555 1.424.599a43.706 43.706 0 0 0 3.646 2.07c1.675 2.507 3.506 4.878 5.884 7.07 1.64 1.516 4.442-.008 4.232-1.898.737.415 1.526.766 2.349 1.075.854 1.198 2.192 2.132 4.15 2.49 3.619.66 7.254 1.039 10.899 1.292 5.153 2.078 10.837 2.106 16.431 1.255 6.734 1.553 14.204.962 21.363-.383 2.423.183 4.839.448 7.248.79.933 2.021 1.934 4.014 2.916 6.02-.72 1.756-.84 3.798.067 5.925 3.555 8.398 7.211 16.067 12.594 23.22a308.075 308.075 0 0 0-.687 5.244c-8.927.986-18.11 1.076-27.513.709-19.788-.766-49.23 5.225-65.421-8.81-7.081-6.142-17.454 4.14-10.326 10.326 17.775 15.407 43.587 13.012 65.621 12.864 12.433-.077 24.461.086 36.136-.803-1.87 22.299-1.917 44.729-2.81 67.084-1.416 11.309-2.429 22.633-2.408 34.019-.249 2.233-.566 4.458-.857 6.691-26.849-3.272-54.152-5.399-77.592 6.821-2.443.18-4.88.457-7.307.853-5.844-1.749-12.27 6.459-7.131 12.421.106.117.245.211.353.325.256 2.364 1.514 4.658 3.562 5.685 39.112 19.658 84.788 7.996 123.674-6.568a8.122 8.122 0 0 0 1.817-.986c.607-.082 1.223-.146 1.834-.229 7.478-1.026 6.328-10.945.696-13.668 9.52-40.994 11.618-83.448 10.808-125.442 2.029-1.234 4.055-2.543 6.06-4.01 7.508-5.509.239-18.19-7.37-12.612zM212.351 469.289c5.852-1.227 11.95-1.772 18.177-1.887-5.383.668-11.799 1.426-18.177 1.887zm81.931-83.396c.803-8.386 1.491-16.781 2.103-25.18-.175 8.37-.917 16.777-2.103 25.18z" fill="#DDD7D8"/><path d="M331.214 313.947c.522-.9.534-2.009-.33-2.881-9.177-9.263-18.305-19.088-30.232-24.593.795-.9.538-2.441-.403-3.346 4.246-6.048 7.502-12.584 8.957-19.919.766-.721 1.52-1.451 2.209-2.245.859-.99 1.006-2.47 0-3.443-15.678-15.253-46.619-12.352-66.306-10.873-22.668 1.699-51.193 4.609-70.511 17.792-.821.563-1.084 1.361-1.033 2.144-.634.628-1.263 1.26-1.895 1.891-.668.673-.782 1.438-.613 2.144.01.082-.028.139-.012.225 1.555 8.309 6.897 15.008 14.668 18.077-.016.04-.053.061-.065.102-4.146 10.624-11.643 18.325-20.062 25.697-1.023.893-.832 2.421-.043 3.374-6.218 10.412-4.159 26.937-3.59 38.257-2.187 37.038.344 74.35.48 111.453-1.045.782-1.593 2.38-.499 3.7 15.166 18.293 46.784 17.359 68.135 16.887 15.216-.33 30.405-1.932 45.481-3.916 11.301-1.487 24.326-2.221 34.864-6.752 3.59-1.541 5.669-3.473 6.414-5.615 1.125.252 2.311-.196 2.515-1.68 7.119-51.492 12.106-103.181 12.254-155.203a2.303 2.303 0 0 0-.383-1.277zm-91.86-61.904c20.214-2.172 47.412-4.723 65.592 6.394.191.118.318.175.481.265a2.056 2.056 0 0 0-.514 1.108c-.045.302-.155.574-.204.872-1.353 1.071-2.853 1.977-4.34 2.804-4.878 2.714-10.577 4.018-15.988 5.184-12.339 2.645-25.245 2.905-37.819 2.893-21.679-.016-43.622-1.964-65.034-5.55 16.882-9.454 39.383-11.989 57.826-13.97zm-61.399 23.827c-.805-1.532-1.402-3.207-1.846-4.951l.742-.745c23.915 4.226 48.385 6.238 72.656 6.259 15.583.017 38.153.232 53.292-8.509-1.924 5.432-4.837 10.416-8.447 15.069-9.362 1.35-18.703 1.92-28.026 1.924 10.503-1.414 20.915-4.136 31.213-8.97 2.84-1.332.362-5.529-2.457-4.201-31.878 14.972-65.399 9.141-98.912 5.93-5.351-.848-10.697-1.703-16.046-2.526-.908-.139-1.637.199-2.169.72zm4.654 5.579c4.179.252 8.352.578 12.517.957 23.03 3.631 46.052 7.104 69.197 7.303-25.483 4.3-52.092 6.973-75.1-4.576-.089-.049-.177-.045-.273-.077-.108-.049-.183-.135-.308-.167-2.353-.739-4.295-1.985-6.033-3.44zm-7.955 31.651c6.842-6.324 12.011-13.68 15.461-22.286 32.236 14.255 69.936 4.019 103.185-1.234.632-.103 1.022-.403 1.3-.774.27.322.591.604 1.06.774 12.001 4.372 20.975 13.899 29.761 22.865-25.588 17.845-61.271 23.22-91.557 23.501-16.684.15-33.927-2.1-49.125-9.275-2.832-1.332-5.463-3.027-8.034-4.796a43.14 43.14 0 0 1-4.678-3.929c-.112-.105-.163-.188-.259-.285.475-.811.404-1.679-.02-2.388.704-.563 1.816-1.167 2.906-2.173zm135.459 159.494c-2.714 1.598-6.523 2.201-9.572 2.918-4.702 1.104-9.497 1.817-14.263 2.551-20.595 3.162-41.382 5.322-62.232 5.559-16.836.191-40.502.126-54.529-11.541a32.47 32.47 0 0 1 1.916-2.453 2.313 2.313 0 0 0 1.626-1.055 19.18 19.18 0 0 1 1.991-2.543 31.055 31.055 0 0 1 4.578-3.231c3.741-1.549 7.93-1.19 12.784-1.3 8.311-.184 16.575-2.217 24.927-2.604 15.884-.726 31.873 1.146 47.708 2.132 12.156.749 25.046-1.243 36.933 1.625 2.383.577 14.654 6.112 8.133 9.942zm5-6.992a17.518 17.518 0 0 0-2.759-2.751c-11.435-9.157-26.897-5.913-40.412-6.255-22.718-.579-44.958-3.957-67.717-1.586-8.14.848-16.895.29-24.249 2.743a2.32 2.32 0 0 0-1.73.188c-3.653 1.907-6.928 4.604-9.723 7.689v-.718a2.36 2.36 0 0 0-.277-1.12c-.946-7.71-1.73-15.485-.196-23.134.255-.355.45-.767.473-1.305 1.013-23.803-.968-47.604-1.239-71.403-.033-2.763-.306-6.088-.622-9.657.658-11.863 1.826-23.685 3.698-35.466 19.746 17.413 50.517 18.974 75.46 17.597 26.995-1.496 57.906-7.568 80.882-23.094-.264 49.679-4.877 99.068-11.589 148.272z" fill="#A5989A"/><path d="M250.762 470.349c-3.287-7.824-5.831-15.945-9.419-23.64.23-.415.422-.848.656-1.259 1.526-2.747-2.68-5.196-4.208-2.458-4.791 8.591-8.33 17.743-12.166 26.773-1.217 2.857 2.977 5.339 4.199 2.462 2.846-6.691 5.53-13.448 8.678-19.992 2.708 6.39 4.878 13.007 7.562 19.405 1.2 2.853 5.911 1.602 4.698-1.291zM184.797 256.795c-1.334-2.836-5.53-.367-4.199 2.461.762 1.622.878 3.081.882 4.854.006 3.138 4.874 3.143 4.866 0-.004-2.67-.406-4.886-1.549-7.315zM305.945 244.627c-3.46 4.715-6.231 9.87-6.415 15.831-.098 3.138 4.769 3.134 4.866 0 .154-5.065 2.832-9.401 5.754-13.374 1.859-2.539-2.372-4.959-4.205-2.457z" fill="#8C7E82"/><g><path d="M391.436 165.255c-14.724 21.954-43.017-16.971-55.906-26.229-17.286-12.427-32.768-7.688-44.336 8.762-.93-6.585-3.164-11.934-6.588-15.989-1.671-3.92-4.601-7.463-9.299-10.204-6.025-3.529-12.02-4.075-17.803-2.723a30.015 30.015 0 0 0-3.795.55c-.281.061-.548.151-.823.222-9.344.632-20.31 8.49-30.675 14.878-16.728 4.852-32.729 6.225-32.354-10.949.125-5.765-7.942-5.331-9.401-.6-18.733 60.8 65.38 80.652 103.935 48.524.198-.157.273-.36.432-.53 3.102 7.378 7.994 13.961 14.037 19.234 25.236 29.55 82.87 19.345 101.065-20.667 2.598-5.728-5.164-9.243-8.489-4.279z" fill="#A5989A"/><path d="M191.441 138.16c-.489-2.79-4.764-1.769-4.283 1.019 8.676 49.625 84.427-36.072 89.024 10.555.275 2.812 4.548 1.767 4.272-1.011-5.278-53.57-81.606 31.836-89.013-10.563zM378.729 178.813c-17.323 10.367-30.934-14.302-41.415-24.557-12.225-11.952-25.628-12.545-38.696-1.453-2.164 1.838.835 5.049 2.995 3.217 34.552-29.34 45.942 46.566 79.19 26.665 2.426-1.452.363-5.331-2.074-3.872z" fill="#DDD7D8"/></g></svg>