<svg xmlns="http://www.w3.org/2000/svg" width="28" height="31" viewBox="0 0 28 31">
    <g fill="none" fill-rule="evenodd" stroke="#99A6AD">
        <path fill="#FFF" d="M18.007 30l-.191-.032c-3.323-.561-9.514-5.183-12.266-9.16C2.796 16.83.54 9.251 1.08 5.791l.031-.201.134-.15C2.24 4.328 5.628.713 7.44 1.019c1.51.256 4.148 3.704 4.705 6.15.337 1.486-.162 2.228-.644 2.587-.776.583-1.51.9-2.1 1.154-.954.412-1.288.587-1.387 1.222-.219 1.403 1.075 3.272 2.327 5.08 1.252 1.807 2.545 3.676 3.893 3.904.609.103.874-.173 1.55-.985.42-.503.94-1.128 1.715-1.711.39-.292.865-.4 1.374-.314 2.325.393 5.601 5.167 5.302 7.09-.294 1.885-4.657 4.09-5.988 4.72l-.18.085z"/>
        <g stroke-linecap="round" stroke-linejoin="round">
            <path d="M17.503 7.802c2.23.36 3.746 2.443 3.384 4.655M17.846 4.938c3.793.635 6.37 4.322 5.754 8.235M18.534 1.358c5.578.938 9.366 6.388 8.462 12.173"/>
        </g>
    </g>
</svg>
