<?xml version="1.0" encoding="utf-8"?>
<!-- Generator: Adobe Illustrator 16.0.0, SVG Export Plug-In . SVG Version: 6.00 Build 0)  -->
<!DOCTYPE svg PUBLIC "-//W3C//DTD SVG 1.1//EN" "http://www.w3.org/Graphics/SVG/1.1/DTD/svg11.dtd">
<svg version="1.1" id="Layer_1" xmlns="http://www.w3.org/2000/svg" xmlns:xlink="http://www.w3.org/1999/xlink" x="0px" y="0px"
	 width="512px" height="512px" viewBox="0 0 512 512" enable-background="new 0 0 512 512" xml:space="preserve">
<g>
	<path
   d="M365.885,463.376c-26.736-27.682-79.151-25.754-114.24-24.955c-24.709,0.562-52.534,1.857-78.812,7.11   c-20.706,0.208-41.134,2.01-59.973,11.716c-4.949,2.547-7.183,8.945-5.752,14.133c0.713,2.592,1.654,5,2.801,7.245   c-2.243,6.247-0.252,13.994,8.028,16.104c4.157,1.06,8.36,2.014,12.574,2.926c26.278,12.935,66.86,10.986,89.287,10.399   c45.545-1.206,101.975-4.172,143.553-25.021C370.73,479.334,371.203,468.878,365.885,463.376z"
   id="path68"
   fill="#EFEAEB" />
    <g
   id="g70">
        <path
   d="M333.933,174.041c-20.738,45.779-36.843,93.586-52.481,141.296    c-13.318,40.661-30.186,80.43-42.207,121.552c-6.119-18.774-11.437-37.919-17.05-56.525    c-11.526-38.24-22.497-76.645-34.479-114.742c-21.025-66.861-37.423-135.355-63.518-200.527c-1.155-2.875-5.866-1.624-4.696,1.294    c25.483,63.645,42.006,130.489,62.065,195.933c11.711,38.196,23.116,76.473,34.561,114.746    c6.718,22.462,13.066,45.661,20.75,68.155c-2.5,9.108-4.755,18.285-6.634,27.56c-0.615,3.064,4.075,4.369,4.699,1.296    c1.408-6.952,3.032-13.843,4.807-20.685c2.372,6.572,4.843,13.089,7.535,19.467c1.204,2.848,5.915,1.597,4.696-1.292    c-3.645-8.647-6.911-17.527-9.986-26.513c11.812-42.25,29.312-82.83,42.882-124.525c15.825-48.624,32.142-97.409,53.263-144.031    C339.426,173.662,335.229,171.184,333.933,174.041z"
   id="path72"
   fill="#8C7E82" />
        <g
   id="g74">
            <path
   d="M369.728,13.783c-3.406-5.587-9.584-7.553-15.855-6.624c-0.437,0.065-0.832,0.193-1.19,0.353     c-1.227-0.74-2.559-1.257-4.066-1.261c-1.867-0.008-3.163,0.917-4.026,2.221c-5.416-1.345-11.325-0.556-16.7,0.607     c-1.602,0.35-2.461,1.314-2.836,2.465c-23.562-0.738-47.15,10.328-66.154,27.572c-1.473,0.12-2.749,1.023-3.152,2.969     c-0.297,0.334-0.56,0.664-0.723,1.002c-0.297-0.019-0.55-0.108-0.893-0.067c-7.354,0.964-14.717,2.066-21.858,4.132     c-1.494,0.43-2.343,1.53-2.737,2.787c-3.211-1.074-6.428-1.53-9.772-1.082c-3.317-1.225-6.991-1.997-10.191-0.613     c-0.962,0.412-1.571,1.078-2.04,1.813c-21.164-5.744-47.54,2.946-66.299,16.51l-2.388,0.723     c-1.198-0.705-2.661-0.823-4.138,0.259c-5.361,3.937-6.999,5.306-11.958,9.835c-0.037,0.037-0.047,0.08-0.088,0.126     c-1.229-0.271-2.526-0.104-3.537,0.517c-1.628,0.611-2.942,1.995-2.83,4.059c0.214,3.763,0.416,5.1,1.202,8.115     c-0.622,0.63-1.251,1.261-1.795,1.977c-2.786,3.655,1.432,10.131,5.583,6.732c0.295-0.238,0.566-0.511,0.858-0.756l0.021,0.026     c0.067-0.087,0.145-0.146,0.212-0.234c0.098-0.085,0.2-0.173,0.299-0.261c1.058,0.467,2.248,0.5,3.352-0.069l0.041,0.039     c0.037,0.029,0.075,0.033,0.102,0.063c0.346,0.563,0.709,1.157,1.133,1.83c0.047,0.363,0.039,0.705,0.195,1.108     c2.298,5.826,5.166,11.062,8.407,16.076c0.057,0.644,0.234,1.312,0.664,1.989c2.506,3.957,5.297,7.372,8.283,10.367     c0.931,1.18,1.872,2.366,2.826,3.556c0.934,1.157,2.117,1.675,3.303,1.769c16.622,12.142,38.118,11.921,58.365,0.055     c9.902-5.807,15.952-14.705,19.815-24.887c3.831-4.531,5.813-10.014,6.718-15.878c0.516-0.505,0.952-1.102,1.184-1.909     c2.243-7.973,2.431-16.261,0.206-24.267c-0.094-0.353-0.285-0.583-0.438-0.868c-0.006-0.027-0.002-0.049-0.008-0.078     c-0.002-0.041-0.024-0.061-0.032-0.102c0.057-0.017,0.108,0.008,0.165-0.013c5.261-1.403,10.921-2.44,16.363-2.795     c0.548-0.057,1.019-0.222,1.459-0.419c0.515,0.697,1.031,1.385,1.567,2.045c0.434,0.532,0.978,0.896,1.559,1.18     c1.012,4.623,2.634,8.72,4.71,12.365c0.616,0.043,1.231,0.245,1.785,0.778c2.781,2.692,5.411,5.51,7.967,8.387     c2.466,2.201,4.837,4.511,7.138,6.893c9.745,5.118,21.579,7.058,33.49,6.235c19.08,2.188,38.281-4.167,50.686-22.441     c0.823-1.206,0.905-2.382,0.538-3.376c7.951-11.435,10.123-26.115,1.948-43.062c0.436-0.446,0.795-0.956,1.022-1.504     C370.689,25.908,373.15,19.414,369.728,13.783z M227.143,73.293c-0.949,11.054-2.41,22.007-6.298,32.315     c-0.254,0.216-0.475,0.457-0.744,0.665c-1.74,1.298-2.103,3.213-1.642,4.88c-0.646,1.33-1.298,2.663-2.042,3.969     c-13.849,24.249-44.726,24.685-63.559,8.851c-5.53-9.581-9.819-19.54-13.376-30.011c0.656-0.715,1.104-1.67,1.066-2.932     c-0.114-3.729,0.819-7.19,1.885-10.724c2.763-1.632,5.966-2.485,9.102-3.025c4.136-0.719,3.771-5.493,1.076-7.562     c16.435-10.01,37.531-16.337,53.97-11.159c0.491,0.432,1.047,0.796,1.754,0.945c0.662,0.139,1.263,0.277,1.885,0.416     c5.049,2.248,9.564,5.683,13.183,10.711c0.97,1.355,2.302,1.817,3.623,1.793C227.062,72.714,227.104,73,227.143,73.293z      M314.641,92.657c-19.312-2.261-38.758-14.902-48.403-31.643c-0.047-0.082-0.116-0.112-0.165-0.184     c-0.454-3.063-0.707-6.284-0.555-9.825c0.041-0.852-0.173-1.524-0.482-2.111c0.039-0.43,0.12-0.854,0.143-1.288     c0.088-0.782-0.026-1.473-0.238-2.108c25.037-22.814,59.877-34.846,89.951-15.924c0.114,0.408,0.199,0.815,0.456,1.231     C376.382,65.128,345.722,89.709,314.641,92.657z"
   id="path76"
   fill="#FDBAC1" />
            <g
   id="g78">
                <path
   d="M193.659,54.888c-12.657-0.161-25.274,5.133-35.83,11.689c-8.165,5.069-18.232,13.077-19.886,23.063      c-1.304,0.027-2.692,1.139-2.317,2.806c5.453,24.428,14.171,48.477,43.583,46.723c24.075-1.438,43.304-21.275,48.481-43.776      C233.294,71.027,217.412,55.202,193.659,54.888z M220.083,105.038c-6.944,17.305-25.687,28.805-43.852,29.895      c-24.685,1.475-31.535-22.407-35.93-41.761c0.884-0.232,1.671-0.911,1.75-2.054c0.75-10.5,15.151-19.265,23.312-23.884      c8.653-4.895,18.523-7.462,28.401-7.93c10.46-0.505,21.897,3.352,27.545,12.512C227.261,81.459,223.989,95.309,220.083,105.038z      "
   id="path80"
   fill="#A5989A" />
                <path
   d="M336.178,16.702c-24.1-4.395-57.146,11.528-71.499,30.194c-0.079,0.102-0.098,0.212-0.159,0.314      c-0.246,0.336-0.426,0.729-0.434,1.243c-0.363,22.621,13.762,38.385,35.277,43.74c20.563,5.125,48.196-0.858,58.987-20.465      C369.283,51.862,359.557,20.969,336.178,16.702z M354.467,69.646c-8.077,18.083-34.508,21.521-51.672,18.756      c-20.485-3.309-34.221-18.55-34.277-39.192c13.146-16.516,36.042-26.056,56.715-28.344      C352.556,17.837,364.512,47.153,354.467,69.646z"
   id="path82"
   fill="#A5989A" />
                <path
   d="M334.58,5.337c-13.17,2.007-25.986,4.646-38.439,9.527c-14.917,5.84-28.285,15.115-41.615,23.868      c-0.434-0.22-0.952-0.314-1.559-0.133c-6.901,2.083-13.749,4.261-20.367,7.127c-0.322-0.267-0.713-0.479-1.214-0.528      c-21.111-2.097-42.611,1.068-63.067,6.282c-19.373,4.933-39.722,12.965-54.284,27.148c-1.3-0.295-2.792,0.392-2.604,2.081      c0.717,6.257,2.427,12.343,3.307,18.58c0.183,1.276,0.947,2.064,2.26,2.15c2.985,0.195,5.88,0.855,8.843,0.609      c7.955,31.323,32.113,53.345,65.459,42.642c32.299-10.375,55.633-40.718,50.14-74.975c3.407-1.047,6.916-2.078,10.469-2.084      c0.638,0,1.111-0.242,1.453-0.589c19.444,26.303,44.785,45.405,79.089,36.278c15.273-4.059,31.61-13.287,36.691-29.304      c2.592-8.17,2.522-15.587,1.517-24.022c-1.023-8.562-4.251-20.805,3.023-27.409c0.835-0.76,0.811-1.675,0.371-2.404      c0.395-0.363,0.651-0.889,0.64-1.581C374.316-1.091,347.303,3.393,334.58,5.337z M370.277,18.705      c0.009,0.33,0.082,0.611,0.196,0.864c-0.013,0.006-0.021,0.006-0.024,0.012c-8.354,7.587-5.453,20.644-4.197,30.514      c2.42,19.175-3.786,34.314-21.224,43.803c-15.958,8.68-35.771,10.273-52.45,3.113c-15.677-6.734-27.391-20.952-37.064-34.455      c-1.237-1.722-3.661-0.837-4.087,0.697c-4.495,0.08-8.935,1.542-13.199,2.83c-1.61,0.483-1.795,2.144-1.139,3.258      c-0.012,0.178-0.051,0.351-0.012,0.544c5.707,31.996-15.736,58.16-44.3,69.592c-31.996,12.8-55.615-9.407-62.948-39.524      c-0.273-1.147-1.161-1.567-2.056-1.51c-0.5-0.514-1.196-0.852-2.068-0.703c-2.182,0.375-4.582-0.145-6.883-0.483      c-0.813-4.876-1.95-9.701-2.671-14.591c14.222-14.436,34.267-21.765,53.444-26.969c19.393-5.259,40.207-7.957,60.315-6.207      c0.371,0.964,1.27,1.63,2.486,1.078c6.516-2.946,13.289-5.135,20.117-7.213c0.642,0.638,1.599,0.919,2.59,0.275      c21.688-14.157,43.067-28.016,69.192-32.152C334.829,9.812,369.932,0.398,370.277,18.705z"
   id="path84"
   fill="#A5989A" />
            </g>
        </g>
        <path
   d="M315.313,318.654c-1.125,0.823-2.266,1.598-3.411,2.348c-0.195-0.266-0.469-0.514-0.717-0.771    c-0.559-2.555-1.227-5.131-2.14-7.759c-3.68-10.611-15.045-16.858-22.612-24.316c-0.514-0.513-1.054-0.888-1.602-1.206    c8.048-2.347,14.768-7.147,17.046-16.108c0.452-1.801-1.275-3.488-2.979-2.999c-0.746-0.27-1.602-0.172-2.311,0.631    c-0.909,1.04-1.695,2.095-2.625,3.032c-0.053,0.012-0.114,0.024-0.171,0.032c-0.232-0.044-0.473-0.057-0.722-0.04    c0.013-0.024,0.029-0.049,0.041-0.073c0.958-2.262-1.002-4.426-3.333-3.334c-4.557,2.136-9.131,4.401-13.76,6.431    c-4.525,0.726-9.043,1.495-13.541,2.355c-11.384-0.563-22.76-1.182-34.164-0.607c-11.897-3.048-23.823-6.332-35.938-5.859    c-0.795-0.074-1.575-0.176-2.376-0.217c-0.568-0.024-1.06,0.176-1.453,0.498c-1.756,0.187-3.515,0.432-5.281,0.807    c-0.173,0.036-0.308,0.146-0.45,0.236c-0.218-0.131-0.473-0.217-0.762-0.253c-0.179-0.053-0.356-0.065-0.534-0.065    c-0.014,0-0.024-0.008-0.041-0.004c-0.014,0-0.026,0.004-0.041,0.004c-0.169,0.009-0.332,0.021-0.491,0.065    c-0.619,0.077-1.21,0.184-1.811,0.465c-0.163,0.061-0.31,0.15-0.465,0.236c-0.277-0.143-0.55-0.294-0.829-0.437    c-2.37-1.186-5.102,1.879-2.953,3.818c0.167,0.155,0.336,0.236,0.501,0.375c-0.004,0-0.008,0.004-0.008,0.008    c0.021,0.009,0.039,0.017,0.057,0.033c0.707,0.57,1.473,0.97,2.347,1.165c1.143,0.587,2.256,1.231,3.187,2.07    c0.451,0.407,0.939,0.555,1.424,0.599c1.196,0.754,2.402,1.443,3.646,2.07c1.675,2.507,3.506,4.878,5.884,7.07    c1.64,1.516,4.442-0.008,4.232-1.898c0.737,0.415,1.526,0.766,2.349,1.075c0.854,1.198,2.192,2.132,4.15,2.49    c3.619,0.66,7.254,1.039,10.899,1.292c5.153,2.078,10.837,2.106,16.431,1.255c6.734,1.553,14.204,0.962,21.363-0.383    c2.423,0.183,4.839,0.448,7.248,0.79c0.933,2.021,1.934,4.014,2.916,6.02c-0.72,1.756-0.84,3.798,0.067,5.925    c3.555,8.398,7.211,16.067,12.594,23.22c-0.248,1.748-0.469,3.492-0.687,5.244c-8.927,0.986-18.11,1.076-27.513,0.709    c-19.788-0.766-49.23,5.225-65.421-8.81c-7.081-6.142-17.454,4.14-10.326,10.326c17.775,15.407,43.587,13.012,65.621,12.864    c12.433-0.077,24.461,0.086,36.136-0.803c-1.87,22.299-1.917,44.729-2.81,67.084c-1.416,11.309-2.429,22.633-2.408,34.019    c-0.249,2.233-0.566,4.458-0.857,6.691c-26.849-3.272-54.152-5.399-77.592,6.821c-2.443,0.18-4.88,0.457-7.307,0.853    c-5.844-1.749-12.27,6.459-7.131,12.421c0.106,0.117,0.245,0.211,0.353,0.325c0.256,2.364,1.514,4.658,3.562,5.685    c39.112,19.658,84.788,7.996,123.674-6.568c0.688-0.261,1.275-0.604,1.817-0.986c0.607-0.082,1.223-0.146,1.834-0.229    c7.478-1.026,6.328-10.945,0.696-13.668c9.52-40.994,11.618-83.448,10.808-125.442c2.029-1.234,4.055-2.543,6.06-4.01    C330.191,325.757,322.922,313.076,315.313,318.654z M212.351,469.289c5.852-1.227,11.95-1.772,18.177-1.887    C225.145,468.07,218.729,468.828,212.351,469.289z M294.282,385.893c0.803-8.386,1.491-16.781,2.103-25.18    C296.21,369.083,295.468,377.49,294.282,385.893z"
   id="path86"
   fill="#DDD7D8" />
        <g
   id="g88">
            <path
   d="M331.214,313.947c0.522-0.9,0.534-2.009-0.33-2.881c-9.177-9.263-18.305-19.088-30.232-24.593     c0.795-0.9,0.538-2.441-0.403-3.346c4.246-6.048,7.502-12.584,8.957-19.919c0.766-0.721,1.52-1.451,2.209-2.245     c0.859-0.99,1.006-2.47,0-3.443c-15.678-15.253-46.619-12.352-66.306-10.873c-22.668,1.699-51.193,4.609-70.511,17.792     c-0.821,0.563-1.084,1.361-1.033,2.144c-0.634,0.628-1.263,1.26-1.895,1.891c-0.668,0.673-0.782,1.438-0.613,2.144     c0.01,0.082-0.028,0.139-0.012,0.225c1.555,8.309,6.897,15.008,14.668,18.077c-0.016,0.04-0.053,0.061-0.065,0.102     c-4.146,10.624-11.643,18.325-20.062,25.697c-1.023,0.893-0.832,2.421-0.043,3.374c-6.218,10.412-4.159,26.937-3.59,38.257     c-2.187,37.038,0.344,74.35,0.48,111.453c-1.045,0.782-1.593,2.38-0.499,3.7c15.166,18.293,46.784,17.359,68.135,16.887     c15.216-0.33,30.405-1.932,45.481-3.916c11.301-1.487,24.326-2.221,34.864-6.752c3.59-1.541,5.669-3.473,6.414-5.615     c1.125,0.252,2.311-0.196,2.515-1.68c7.119-51.492,12.106-103.181,12.254-155.203     C331.598,314.701,331.435,314.298,331.214,313.947z M239.354,252.043c20.214-2.172,47.412-4.723,65.592,6.394     c0.191,0.118,0.318,0.175,0.481,0.265c-0.245,0.281-0.444,0.619-0.514,1.108c-0.045,0.302-0.155,0.574-0.204,0.872     c-1.353,1.071-2.853,1.977-4.34,2.804c-4.878,2.714-10.577,4.018-15.988,5.184c-12.339,2.645-25.245,2.905-37.819,2.893     c-21.679-0.016-43.622-1.964-65.034-5.55C198.41,256.559,220.911,254.024,239.354,252.043z M177.955,275.87     c-0.805-1.532-1.402-3.207-1.846-4.951l0.742-0.745c23.915,4.226,48.385,6.238,72.656,6.259     c15.583,0.017,38.153,0.232,53.292-8.509c-1.924,5.432-4.837,10.416-8.447,15.069c-9.362,1.35-18.703,1.92-28.026,1.924     c10.503-1.414,20.915-4.136,31.213-8.97c2.84-1.332,0.362-5.529-2.457-4.201c-31.878,14.972-65.399,9.141-98.912,5.93     c-5.351-0.848-10.697-1.703-16.046-2.526C179.216,275.011,178.487,275.349,177.955,275.87z M182.609,281.449     c4.179,0.252,8.352,0.578,12.517,0.957c23.03,3.631,46.052,7.104,69.197,7.303c-25.483,4.3-52.092,6.973-75.1-4.576     c-0.089-0.049-0.177-0.045-0.273-0.077c-0.108-0.049-0.183-0.135-0.308-0.167C186.289,284.15,184.347,282.904,182.609,281.449z      M174.654,313.1c6.842-6.324,12.011-13.68,15.461-22.286c32.236,14.255,69.936,4.019,103.185-1.234     c0.632-0.103,1.022-0.403,1.3-0.774c0.27,0.322,0.591,0.604,1.06,0.774c12.001,4.372,20.975,13.899,29.761,22.865     c-25.588,17.845-61.271,23.22-91.557,23.501c-16.684,0.15-33.927-2.1-49.125-9.275c-2.832-1.332-5.463-3.027-8.034-4.796     c-1.654-1.198-3.211-2.511-4.678-3.929c-0.112-0.105-0.163-0.188-0.259-0.285c0.475-0.811,0.404-1.679-0.02-2.388     C172.452,314.71,173.564,314.106,174.654,313.1z M310.113,472.594c-2.714,1.598-6.523,2.201-9.572,2.918     c-4.702,1.104-9.497,1.817-14.263,2.551c-20.595,3.162-41.382,5.322-62.232,5.559c-16.836,0.191-40.502,0.126-54.529-11.541     c0.589-0.848,1.239-1.654,1.916-2.453c0.605-0.094,1.192-0.398,1.626-1.055c0.652-0.982,1.31-1.818,1.991-2.543     c1.432-1.223,2.967-2.295,4.578-3.231c3.741-1.549,7.93-1.19,12.784-1.3c8.311-0.184,16.575-2.217,24.927-2.604     c15.884-0.726,31.873,1.146,47.708,2.132c12.156,0.749,25.046-1.243,36.933,1.625     C304.363,463.229,316.634,468.764,310.113,472.594z M315.113,465.602c-0.737-0.913-1.605-1.83-2.759-2.751     c-11.435-9.157-26.897-5.913-40.412-6.255c-22.718-0.579-44.958-3.957-67.717-1.586c-8.14,0.848-16.895,0.29-24.249,2.743     c-0.53-0.143-1.117-0.131-1.73,0.188c-3.653,1.907-6.928,4.604-9.723,7.689v-0.718c0-0.443-0.112-0.803-0.277-1.12     c-0.946-7.71-1.73-15.485-0.196-23.134c0.255-0.355,0.45-0.767,0.473-1.305c1.013-23.803-0.968-47.604-1.239-71.403     c-0.033-2.763-0.306-6.088-0.622-9.657c0.658-11.863,1.826-23.685,3.698-35.466c19.746,17.413,50.517,18.974,75.46,17.597     c26.995-1.496,57.906-7.568,80.882-23.094C326.438,367.009,321.825,416.398,315.113,465.602z"
   id="path90"
   fill="#A5989A" />
        </g>
        <path
   d="M250.762,470.349c-3.287-7.824-5.831-15.945-9.419-23.64c0.23-0.415,0.422-0.848,0.656-1.259    c1.526-2.747-2.68-5.196-4.208-2.458c-4.791,8.591-8.33,17.743-12.166,26.773c-1.217,2.857,2.977,5.339,4.199,2.462    c2.846-6.691,5.53-13.448,8.678-19.992c2.708,6.39,4.878,13.007,7.562,19.405C247.264,474.493,251.975,473.242,250.762,470.349z"
   id="path92"
   fill="#8C7E82" />
        <path
   d="M184.797,256.795c-1.334-2.836-5.53-0.367-4.199,2.461c0.762,1.622,0.878,3.081,0.882,4.854    c0.006,3.138,4.874,3.143,4.866,0C186.342,261.44,185.94,259.224,184.797,256.795z"
   id="path94"
   fill="#8C7E82" />
        <path
   d="M305.945,244.627c-3.46,4.715-6.231,9.87-6.415,15.831c-0.098,3.138,4.769,3.134,4.866,0    c0.154-5.065,2.832-9.401,5.754-13.374C312.009,244.545,307.778,242.125,305.945,244.627z"
   id="path96"
   fill="#8C7E82" />
        <g
   id="g98">
            <path
   d="M391.436,165.255c-14.724,21.954-43.017-16.971-55.906-26.229c-17.286-12.427-32.768-7.688-44.336,8.762     c-0.93-6.585-3.164-11.934-6.588-15.989c-1.671-3.92-4.601-7.463-9.299-10.204c-6.025-3.529-12.02-4.075-17.803-2.723     c-1.222,0.106-2.477,0.265-3.795,0.55c-0.281,0.061-0.548,0.151-0.823,0.222c-9.344,0.632-20.31,8.49-30.675,14.878     c-16.728,4.852-32.729,6.225-32.354-10.949c0.125-5.765-7.942-5.331-9.401-0.6c-18.733,60.8,65.38,80.652,103.935,48.524     c0.198-0.157,0.273-0.36,0.432-0.53c3.102,7.378,7.994,13.961,14.037,19.234c25.236,29.55,82.87,19.345,101.065-20.667     C402.523,163.806,394.761,160.291,391.436,165.255z"
   id="path100"
   fill="#A5989A" />
            <path
   d="M191.441,138.16c-0.489-2.79-4.764-1.769-4.283,1.019c8.676,49.625,84.427-36.072,89.024,10.555     c0.275,2.812,4.548,1.767,4.272-1.011C275.176,95.153,198.848,180.559,191.441,138.16z"
   id="path102"
   fill="#DDD7D8" />
            <path
   d="M378.729,178.813c-17.323,10.367-30.934-14.302-41.415-24.557c-12.225-11.952-25.628-12.545-38.696-1.453     c-2.164,1.838,0.835,5.049,2.995,3.217c34.552-29.34,45.942,46.566,79.19,26.665     C383.229,181.233,381.166,177.354,378.729,178.813z"
   id="path104"
   fill="#DDD7D8" />
        </g>
    </g>
</g>
</svg>
