<?xml version="1.0" encoding="utf-8"?>
<!-- Generator: Adobe Illustrator 16.0.0, SVG Export Plug-In . SVG Version: 6.00 Build 0)  -->
<!DOCTYPE svg PUBLIC "-//W3C//DTD SVG 1.1//EN" "http://www.w3.org/Graphics/SVG/1.1/DTD/svg11.dtd">
<svg version="1.1" id="Layer_1" xmlns="http://www.w3.org/2000/svg" xmlns:xlink="http://www.w3.org/1999/xlink" x="0px" y="0px"
	 width="512px" height="512px" viewBox="0 0 512 512" enable-background="new 0 0 512 512" xml:space="preserve">
<g>
	<path
   fill="#EFEAEB"
   d="M399.284,368.415c-47.694-21.264-111.056-19.617-164.215-16.789   c-58.314,3.101-120.031,10.505-173.455,29.308c-10.522,3.7-11.035,18.053,0,21.614c18.362,5.933,37.653,9.173,57.287,10.692   c38.265,4.112,78.14,3.823,115.667,3.016c53.351-1.145,118.399-3.586,164.716-26.227   C409.569,385.009,410.291,373.317,399.284,368.415z"
   id="path68" />
    <g
   id="g70">
        <path
   fill="#FDBAC1"
   d="M183.748,190.264c-1.528-4.864-5.938-6.979-10.762-6.111c-11.329,2.029-19.715,9.972-27.197,18.279    c-0.061,0.041-0.118,0.063-0.175,0.104c-0.599,0.451-1.112,0.946-1.658,1.422c-0.285-5.358-0.778-10.699-1.345-16.033    c0.354-0.925,0.611-1.93,0.611-3.113c-0.008-3.421-0.281-6.813-1.288-10.106c-0.351-1.141-0.954-2.134-1.663-3.034    c-2.481-5.171-9.022-7.382-13.933-2.771c-11.374,10.681-9.564,24.351-6.361,38.065c0.538,8.03,1.801,16.07,3.208,23.817    c-0.045,0.065-0.118,0.123-0.159,0.179c-6.308,8.804,7.331,17.134,14.222,9.855c0.342-0.228,0.66-0.521,0.978-0.798    c2.131,0.994,4.735,0.937,7.469-0.974c3.835-2.677,7.836-5.098,11.667-7.777c1.357-0.949,2.282-2.09,2.918-3.317    c2.754-1.488,5.485-3.012,8.117-4.739C179.775,215.769,188.149,204.275,183.748,190.264z"
   id="path72" />
        <path
   fill="#DDD7D8"
   d="M446.376,204.023c-15.95,16.885-29.243,35.873-41.501,55.531c-10.88,14.022-21.003,28.574-31.149,43.18    c-14.002,20.163-32.096,36.883-45.282,57.535c-1.279,0.354-2.551,1.007-3.732,2.14c-0.131,0.139-0.294,0.236-0.429,0.375    c-1.047-0.664-2.229-1.133-3.455-1.377c-0.077-2.576-1.26-5.208-3.989-7.173c-26.299-18.888-51.454-35.216-84.157-39.116    c-0.289-0.037-0.55-0.021-0.819-0.028c-14.882-5.424-29.952-5.778-45.331-12.396c-10.249-4.409-19.169,10.664-8.827,15.118    c16.276,7.01,34.112,5.84,50.107,13.912c1.687,0.853,3.325,1.785,4.98,2.698c5.607,3.676,11.353,7.106,17.176,10.407    c13.419,8.745,26.508,17.972,41.406,24.471c0.343,0.551,0.744,1.089,1.249,1.594c6.464,6.594,8.852,8.443,16.357,14.01    c2.58,1.924,5.078,2.025,7.181,1.084c4.173,1.98,9.87,0.412,11.956-3.586c0.399-0.252,0.807-0.497,1.19-0.807    c2.778-2.058,5.375-4.328,7.779-6.81c2.986-2.873,3.142-6.337,1.821-9.214c0.505-0.782,1.011-1.572,1.536-2.339    c6.817-7.294,12.897-15.208,18.627-23.424c0.033-0.04,0.065-0.081,0.098-0.122c6.598-7.6,13.265-15.167,19.193-23.346    c5.192-7.152,10.237-14.373,15.298-21.586c1.614,0.285,3.285-0.105,4.564-1.769c0.31-0.396,0.604-0.782,0.913-1.182l0,0    c0,0,0,0,0.008-0.004c9.182-11.858,18.118-23.109,24.304-36.949c0.48-1.06,0.521-2.168,0.379-3.244    c9.271-13.863,19.304-27.175,30.8-39.334C459.791,206.81,451.555,198.544,446.376,204.023z"
   id="path74" />
        <path
   fill="#DDD7D8"
   d="M376.599,173.142c-2.01,0.214-3.713,1.381-4.756,2.914c-2.314-0.416-4.801,1.088-6.117,2.894    c-7.665,10.554-15.272,21.133-22.363,32.089c-0.021,0.033-0.017,0.069-0.037,0.102c-4.45,0.18-7.363,5.852-3.912,9.886    c1.035,1.207,2.083,1.83,3.261,2.185c10.692,6.218,19.715,13.621,27.856,23.099c3.366,3.92,10.062,0.734,9.96-4.124    c-0.122-5.688-1.508-9.543-5.241-13.836c-0.978-1.121-2.144-2.03-3.325-2.914c1.813-7.918,0.856-15.394-2.481-22.542    c0.143-1.483,0.273-2.973,0.347-4.47c0.073-1.44-0.44-2.592-1.215-3.513c1.182-1.645,2.355-3.291,3.537-4.935    c0.808,0.587,1.63,1.147,2.307,1.875c0.733,0.733,1.516,1.172,2.307,1.438c1.577,1.104,3.166,2.18,4.711,3.366    c0.366,0.287,0.75,0.367,1.133,0.534c0.086,0.085,0.163,0.179,0.253,0.269c0.138,0.33,0.191,0.656,0.407,0.996    c3.158,4.921,6.569,9.662,9.731,14.585c2.307,3.594,7.844,3.953,10.069,0c1.834-3.254,3.012-6.32,3.676-9.212    C423.938,189.026,389.5,171.769,376.599,173.142z"
   id="path76" />
        <path
   fill="#DDD7D8"
   d="M362.755,268.319c0.253-0.713,0.266-1.524-0.167-2.323c-2.449-4.556-5.15-8.993-8.391-12.995    c1.247-1.182,1.423-3.362-0.436-4.58c-8.937-5.868-16.695-11.842-27.727-12.07c-0.2,0-0.379,0.057-0.563,0.089    c-12.307-7.174-24.544-16.4-39.311-15.65c-0.974,0.049-1.821,0.64-2.351,1.426c-7.278-3.162-14.728-5.037-22.731-2.29    c-1.434,0.489-2.232,2.201-2.029,3.619c-13.651,6.577-22.315,22.969-29.622,36.343c-1.373,1.891-2.677,3.814-3.932,5.771    c-1.589,1.483-2.335,2.331-3.154,3.398c-1.067,1.084-2.176,2.14-3.39,3.154c-1.646,1.377-0.84,3.603,0.668,4.548    c0.367,0.587,0.856,1.092,1.589,1.296c2.266,0.656,4.54,1.304,6.81,1.947c1.585,0.457,3.093-0.537,3.59-2.037    c1.614-4.89,3.325-9.274,3.994-14.389c0.024-0.184-0.028-0.339-0.049-0.51c0.22-0.399,0.416-0.823,0.636-1.215    c2.323-3.423,4.581-6.891,6.789-10.416c0.334-0.521,0.424-1.019,0.428-1.5c0.501-0.799,1.056-1.561,1.516-2.388    c0.525-0.938,0.387-1.928-0.069-2.755c6.133-9.096,13.773-16.702,24.255-18.046c0.204,0.033,0.403,0.057,0.603,0.098    c4.801,1.785,11.464,5.349,16.554,4.605c8.82,3.254,17.117,10.271,14.591,20.658c-0.571,2.359,1.523,3.9,3.41,3.55    c1.337,0.244,2.783-0.293,3.191-2.001c0.073-0.306,0.113-0.615,0.188-0.925c6.797-0.994,13.464-2.156,20.139-3.847    c0.017,0,0.024-0.016,0.045-0.024c4.841-0.627,9.719-1.019,14.739-0.839c0.024,0,0.037-0.013,0.065-0.013    c0.66,0.416,1.32,0.84,1.972,1.276c-0.301,0.896-0.154,1.907,0.759,2.747c1.72,1.569,3.228,3.309,4.649,5.102    c-0.542,0.856-0.726,1.98-0.24,3.057c0.603,1.337,1.214,2.53,1.862,3.651c-0.176,0.396-0.453,0.786-0.893,1.182    c-0.693,1.141-0.506,2.221,0.105,3.023c-1.148,1.969-1.984,4.133-2.347,5.453c-0.986,3.635,4.646,5.175,5.632,1.548    c0.342-1.271,0.762-2.485,1.332-3.676c0.184-0.366,0.388-0.713,0.607-1.067c0.302,0.146,0.619,0.195,0.929,0.195    c0.351,0.326,0.624,0.652,1.003,0.97C360.27,273.421,364.149,271.054,362.755,268.319z"
   id="path78" />
        <path
   fill="#DDD7D8"
   d="M251.63,264.949c-2.368,1.5-2.881,3.48-3.965,5.908c-0.359,0.804-0.334,1.573-0.09,2.258    c-0.685,2.029,0.872,4.972,3.386,3.97c0.017,0,0.021-0.017,0.037-0.024c0.986,0.008,2.009-0.408,2.673-1.313    c1.084-1.459,1.251-3.228,1.948-4.865c0.334-0.783,0.302-1.532,0.074-2.197C256.586,266.262,254.206,263.319,251.63,264.949z"
   id="path80" />
        <path
   fill="#DDD7D8"
   d="M297.733,280.101c-0.184-0.188-0.391-0.31-0.587-0.457l0,0c-0.008-0.008-0.024-0.016-0.032-0.024    c-0.53-0.383-1.08-0.701-1.695-1.06c-1.618-1.011-3.162-0.216-3.89,1.068c-0.767,1.267-0.713,3.023,0.943,3.969    c0.574,0.362,1.153,0.726,1.728,1.084C297.049,286.461,300.061,282.423,297.733,280.101z"
   id="path82" />
        <path
   fill="#DDD7D8"
   d="M349.788,277.598c-1.12-0.631-2.567-0.664-3.451,0.449c-3.203,4.025-6.304,8.133-9.312,12.294    c-3.586,2.168-6.907,4.422-9.78,7.249c-0.603-0.855-1.638-1.34-2.958-0.847c-0.734,0.379-1.517,0.379-2.34,0    c-2.347-0.538-3.912,1.394-3.59,3.59c0.249,1.662,0.729,3.194,0.974,4.861c0.123,0.815,0.645,1.369,1.305,1.695    c1.019,2.233,1.858,4.572,2.877,6.781c1.011,2.172,3.545,1.699,4.764,0.179c0.347-0.143,0.656-0.358,0.917-0.66    c0.611-0.041,1.238-0.277,1.821-0.872c5.803-5.97,10.705-12.718,14.731-19.968c2.494-3.431,5.004-6.846,7.637-10.18    C355.522,279.456,352.144,275.756,349.788,277.598z"
   id="path84" />
        <path
   fill="#DDD7D8"
   d="M348.753,159.7c-1.769-2.598-4.665-4.309-7.534-5.536c-0.028-0.024-0.065-0.047-0.094-0.069    c-0.008,0.006-0.008,0.014-0.013,0.021c-0.232-0.098-0.46-0.222-0.688-0.314c-2.11-0.846-3.492,0.938-3.505,2.765    c-0.183,0.408-0.265,0.848-0.216,1.298c-0.094-0.033-0.175-0.096-0.272-0.123c0.518-1.269,0.143-2.84-1.142-3.647    c-9.136-5.762-17.648-10.22-27.258-2.917c-1.137,0.861-1.455,2.011-1.21,3.034c-0.375,0.678-0.236,1.447,0.089,2.17    c-0.419,0.742-0.77,1.516-1.128,2.288c-2.271,1.897-4.197,4.183-5.604,7.166c-0.481,1.023-0.383,1.944-0.008,2.688    c-0.27,0.589-0.53,1.19-0.787,1.793c-1.426-0.29-3.061,0.579-3.386,2.052c-0.718,3.185-2.873,5.397-4.575,8.052c0,0,0,0,0,0.004    c-0.398,0.24-0.758,0.546-0.97,0.97c-0.529,1.063-1.06,2.129-1.597,3.191c-2.413,3.393-4.776,6.801-7.674,9.833    c-0.306,0.322-0.501,0.674-0.628,1.039c-1.332,0.573-2.461,1.133-3.476,2.07c-0.465,0.354-0.889,0.772-1.21,1.369    c-0.021,0.033-0.013,0.061-0.029,0.094c-0.835,0.695-1.629,1.438-2.433,2.235c-1.772,1.758-0.505,5.051,2.062,4.979    c4.019-0.112,9.215-0.012,13.135-1.027c0.831,0.2,1.744,0.033,2.539-0.801c3.991-4.181,7.043-8.994,10.014-13.924    c2.119-0.399,3.725-3.01,1.655-4.789c-1.68-1.447-3.558-2.544-5.457-3.623c0.958-1.402,1.887-2.775,2.682-4.212    c0.444,0.126,0.933,0.182,1.491,0.072c1.512-0.302,2.808-0.728,3.949-1.561c0.244-0.11,0.501-0.21,0.741-0.328    c1.386-0.024,2.486-0.68,3.415-1.64c0.652,0.616,1.557,0.954,2.592,0.607c4.955-1.638,9.368-4.14,13.766-6.777    c0.269,0.016,0.529,0.037,0.823-0.026c3.553-0.817,6.642-3.024,9.809-4.807c0.424,0.497,0.966,0.839,1.609,0.959    c0.831,1.151,1.129,2.494,1.418,4.161v3.68c0,1.759,1.806,3.358,3.586,2.818c1.166,0.195,2.352-0.239,2.865-1.386    c0.163-0.106,0.33-0.189,0.473-0.34c1.838-1.962,3.154-4.236,3.614-6.706c0.559-0.882,1.125-1.767,1.704-2.637    C353.473,161.544,350.966,159.309,348.753,159.7z"
   id="path86" />
        <path
   fill="#DDD7D8"
   d="M280.86,130.578c-1.846-1.166-3.794-2.142-5.835-2.918c-4.67-2.074-8.981-1.084-11.977,3.144    c-20.009,28.25-38.905,57.695-63.323,82.438c-17.205,17.433-36.757,32.879-50.237,53.275    c-26.341-24.698-66.016-45.149-98.201-24.112c-9.405,6.145-0.644,21.313,8.834,15.119c0.505-0.334,1.035-0.555,1.553-0.864    c1.878,1.875,4.65,2.796,8.028,1.744c11.907-3.716,29.141,5.51,39.573,10.302c12.559,5.759,27.294,12.813,36.504,23.424    c0.913,1.052,1.903,1.776,2.914,2.237c2.893,3.798,8.7,5.741,13.358,1.65c14.703-12.918,26.476-28.681,37.703-44.769    c8.989-9.234,18.036-18.419,26.476-28.161c9.902-11.422,17.829-24.287,25.848-37.104c12.066-13.252,23.566-26.934,31.92-43.434    C286.134,138.337,285.181,133.047,280.86,130.578z"
   id="path88" />
        <g
   id="g90">
            <path
   fill="#A5989A"
   d="M263.795,248.021v0.97c0,3.766,5.835,3.766,5.835,0v-0.97     C269.63,244.256,263.795,244.256,263.795,248.021z"
   id="path92" />
            <path
   fill="#A5989A"
   d="M281.301,251.909v0.97c0,3.766,5.836,3.766,5.836,0v-0.97     C287.137,248.144,281.301,248.144,281.301,251.909z"
   id="path94" />
            <path
   fill="#A5989A"
   d="M280.804,261.062c-5.131,3.04-10.302,0.358-14.56-2.918c-2.983-2.298-5.881,2.779-2.947,5.037     c6.003,4.613,13.529,7.025,20.449,2.918C286.981,264.179,284.048,259.134,280.804,261.062z"
   id="path96" />
            <path
   fill="#A5989A"
   d="M320.203,258.714h-0.978c-3.766,0-3.766,5.836,0,5.836h0.978     C323.961,264.55,323.961,258.714,320.203,258.714z"
   id="path98" />
            <path
   fill="#A5989A"
   d="M325.061,275.952v1.238c0,3.766,5.836,3.766,5.836,0v-1.238     C330.896,272.187,325.061,272.187,325.061,275.952z"
   id="path100" />
            <path
   fill="#A5989A"
   d="M320,279.24c-5.469-1.736-6.28-6.667-5.632-11.772c0.469-3.729-5.371-3.685-5.836,0     c-0.994,7.86,2.021,14.89,9.919,17.396C322.045,286.009,323.578,280.369,320,279.24z"
   id="path102" />
            <path
   fill="#A5989A"
   d="M381.46,209.121c-3.762,0-3.762,5.833,0,5.833C385.226,214.954,385.226,209.121,381.46,209.121z"
   id="path104" />
            <g
   id="g106">
                <path
   fill="#A5989A"
   d="M358.647,163.523c0.42-1.194,0.261-2.643-0.998-3.596c-17.666-13.428-33.184-16.314-54.757-11.962      c-0.966,0.193-1.797,1.108-2.037,2.036c-5.168,19.919-19.221,35.928-32.31,51.221c-0.782,0.911-0.844,1.938-0.554,2.842      c-0.628,1.708,0.236,4.051,2.615,4.085c17.107,0.25,34.249,2.51,50.064,9.324c1.472,0.636,3.102,0.44,3.989-1.043      c10.27-17.184,21.582-33.601,35.526-48.031C361.997,166.524,360.563,164.014,358.647,163.523z M320.599,203.758      c-0.97,1.948-1.943,3.888-2.918,5.836c-0.109,0.181-0.126,0.354-0.195,0.536c-2.791-1.004-5.611-1.925-8.456-2.708      c1.785-2.518,3.636-4.984,5.437-7.482c2.307,0.819,4.662,1.822,6.471,3.391C320.831,203.477,320.692,203.575,320.599,203.758z       M324.963,199.119c-3.064-2.651-7.005-4.151-10.795-5.451c-1.287-0.444-2.587,0.302-3.288,1.341      c-2.486,3.645-5.302,7.054-7.783,10.697c-0.073,0.105-0.078,0.208-0.135,0.315c-0.917-0.206-1.838-0.414-2.759-0.638      c4.055-6.821,8.565-13.36,12.796-20.071c0.436-0.695,0.439-1.414,0.261-2.077c0.041-0.13,0.109-0.232,0.135-0.369      c0.028-0.281,0.13-0.505,0.216-0.746c-0.42-0.135-0.84-0.271-1.256-0.418c-0.317-0.285-0.692-0.52-1.1-0.676      c-0.44-0.167-0.856-0.34-1.284-0.509c8.843-2.688,17.657-5.534,25.808-9.862c0.041,3.708,0.229,7.408,1.056,11.042      c0.167,0.731,0.542,1.218,0.994,1.55C333.488,188.497,329.087,193.701,324.963,199.119z M342.087,177.977      c-0.478-3.201-0.489-6.453-0.493-9.697c0-1.024-0.452-1.744-1.084-2.207c-0.266-1.856-2.196-3.515-4.279-2.255      c-3.603,2.176-7.396,3.937-11.271,5.493c0.053-0.495-0.032-0.978-0.216-1.418c0.118-0.51,0.269-1,0.317-1.557      c0.11-1.19-0.807-2.229-1.857-2.678c-0.049-0.077-0.188-0.23-0.485-0.523c-0.465-0.609-0.925-1.202-1.422-1.779      c-1.798-2.043-4.854-0.292-4.984,2.062c-0.163,2.867-2.172,4.89-3.492,7.278c-0.469,0.85-0.473,1.67-0.204,2.369      c-0.024,0.1-0.064,0.18-0.089,0.275c-0.033,0.118-0.009,0.212-0.024,0.322c-4.829,1.496-9.695,2.889-14.467,4.448l-0.017,0.008      c-3.223,0.016-4.441,4.978-0.962,5.614c2.36,0.432,4.679,1.024,6.993,1.613c-3.676,5.658-6.952,11.6-11.198,16.851      c-0.473,0.589-0.632,1.227-0.644,1.85c-5.65-0.797-11.339-1.379-17.077-1.591c11.072-13.014,21.813-26.374,28.609-42.199      c8.175-18.996,35.485-6.149,48.688,3.063C349.356,168.476,345.807,173.293,342.087,177.977z"
   id="path108" />
                <path
   fill="#A5989A"
   d="M418.042,190.229c-0.017-0.028-0.013-0.057-0.029-0.085c-8.264-14.564-26.634-21.192-42.519-22.331      c-10.709-0.772-10.273,5.049-15.159,13.56c-7.417,12.908-17.833,24.245-28.587,34.438c-1.031,0.978-1.088,2.168-0.607,3.138      c-0.518,1.198-0.33,2.637,1.198,3.386c15.163,7.486,28.578,17.456,40.254,29.689c1.116,1.174,2.991,1.076,4.124,0      c16.903-16.088,34.019-36.743,42.56-58.656C419.867,191.859,419.138,190.763,418.042,190.229z M384.019,235.877      c-0.049-0.033-0.064-0.073-0.113-0.106c-11.395-6.689-7.625-17.745-6.989-27.928c0.265-0.139,0.534-0.299,0.774-0.548      c0.062-0.063,0.126-0.138,0.184-0.202c1.092-0.057,2.14-0.685,2.51-2.058c0.363-1.351,0.889-1.75,0.188-1.219      c0.094-0.153,0.232-0.289,0.313-0.448c5.123,5.711,8.48,13.786,15.584,17.486C392.479,226.059,388.236,231.059,384.019,235.877z       M399.937,216.16c-0.073-0.041-0.118-0.098-0.196-0.122c-1.532-0.587-2.86-1.467-4.059-2.522      c2.918-1.858,5.566-3.346,7.278-6.212c0-0.004,0.008-0.008,0.008-0.008v-0.004c0.253-0.426,0.546-0.789,0.75-1.284      c0.998-2.396-1.728-4.034-3.781-3.427c0.301-1.121,0.587-2.249,0.863-3.38c0.677-2.722-2.824-5.072-4.873-2.836      c-2.543,2.775-4.435,6.95-5.257,10.923c-1.28-1.973-2.479-3.99-3.75-5.756c-3.602-5.023-8.215-8.737-14.409-9.809      c-0.505-0.087-0.981-0.02-1.435,0.112c-0.105-0.008-0.207,0.008-0.31,0.008c-2.648-0.85-5.518,2.575-3.04,4.753      c6.251,5.483,2.025,17.331,1.875,24.556c-0.171,8.338,3.684,14.758,10.489,19.085c-1.802,1.964-3.644,3.896-5.526,5.787      c0.669-0.676-10.285-9.878-11.165-10.62c-7.931-6.718-16.773-12.284-26.007-16.999c11.72-11.329,22.091-23.833,30.225-38.002      c5.464-9.513,12.029-6.997,21.895-4.108c9.186,2.69,18.656,8.326,23.465,16.793c0.021,0.039,0.057,0.053,0.081,0.094      C409.741,201.254,405.136,208.896,399.937,216.16z"
   id="path110" />
                <path
   fill="#A5989A"
   d="M221.133,184.695c-19.821-18.134-44.215-30.334-69.558-38.923c-0.921,1.74-1.862,3.466-2.754,5.218      c24.817,8.301,48.803,20.094,68.184,37.829C219.775,191.354,223.908,187.238,221.133,184.695z"
   id="path112" />
                <path
   fill="#A5989A"
   d="M231.83,168.162c-20.954-17.657-45.241-30.538-71.493-37.949c-1.043,1.734-2.079,3.474-3.093,5.226      c25.86,7.083,49.871,19.495,70.462,36.847C230.558,174.694,234.71,170.589,231.83,168.162z"
   id="path114" />
                <path
   fill="#A5989A"
   d="M245.823,154.093c-24.067-16.076-46.725-36.5-75.454-41.863c0.171,0.634,0.167,1.343-0.31,2.105      c-0.697,1.131-1.394,2.259-2.094,3.386c28.647,4.707,51.252,25.605,74.912,41.409      C246.019,161.225,248.937,156.169,245.823,154.093z"
   id="path116" />
                <path
   fill="#A5989A"
   d="M188.728,192.313c-2.808-20.157-27.669-11.791-39.585-0.625c0-9.533-0.827-21.459-7.364-25.925      c-10.465-7.152-18.656-2.639-24.279,7.775c-6.023,11.147-3.944,25.447-2.51,37.399c1.316,10.913,2.763,25.765,10.612,34.282      c0.758,0.823,1.646,0.986,2.461,0.815c-0.75,2.078,0.726,4.833,3.293,3.827C153.727,241.073,192.848,221.849,188.728,192.313z       M182.22,203.485c-4.906,19.803-34.381,33.624-51.916,40.551c0.342-0.929,0.285-2.005-0.579-2.942      c-9.637-10.459-9.743-33.397-10.24-46.604c-0.094-2.573,0.012-5.135,0.167-7.7c0.334-5.426,8.794-29.479,19.715-14.931      c5.249,6.987,3.839,20.171,3.855,28.511c0.008,2.7,4.229,4.252,5.436,1.471C155.577,185.868,188.687,177.411,182.22,203.485z"
   id="path118" />
                <path
   fill="#A5989A"
   d="M464.615,201.741c-2.575-1.194-4.991-2.463-7.352-3.829c-1.43-1.489-2.901-2.922-4.494-4.274      c0.248-0.778,0.411-1.567,0.632-2.352c0.188-0.377,0.399-0.737,0.591-1.114c0.354-0.693,0.37-1.355,0.232-1.96      c0.488-2.18,0.867-4.376,1.034-6.612c1.476-1.039,2.066-3.684,0.114-5.141c-40.213-30.101-111.982-69.496-161.779-40.3      c-0.84-0.44-1.671-0.917-2.48-1.453c-0.228,0.273-0.448,0.554-0.685,0.823c-37.702-28.212-93.347-46.749-140.443-38.167      c-0.701-0.312-1.54-0.308-2.404,0.332c-21.712,16.043-33.269,41.584-46.716,64.221C83.098,191.81,59.483,217.75,41.516,247.52      c-1.011,1.679-0.123,3.256,1.227,3.953c-0.208,1.589,0.681,3.354,2.75,3.354h0.799c-1.329,1.312-2.559,2.714-3.802,4.361      c-1.182,1.564,0.11,3.789,1.74,4.286c38.888,11.862,76.424,27.409,112.329,46.456c0.322,0.497,0.754,0.945,1.447,1.189      c57.923,20.53,108.649,56.028,161.692,86.249c1.52,0.868,2.942,0.22,3.732-0.884c0.465-0.221,0.905-0.547,1.23-1.133      c11.027-19.813,25.897-36.876,40.702-53.922c13.672-15.737,26.243-32.344,39.948-48.037      c23.061-26.39,51.342-53.432,60.641-88.357C466.271,203.864,465.789,202.285,464.615,201.741z M294.93,142.112      c25.185-15.662,56.139-9.527,82.626-0.697c25.714,8.568,50.311,22.132,72.194,38.145c-0.098,0.275-0.204,0.542-0.221,0.874      c-0.13,2.716-0.619,5.401-1.255,8.074c-31.655,61.566-79.528,111.901-122.146,165.831c-2.494-2.526-4.825-5.033-6.993-7.657      c-0.317,0.045-0.623,0.135-0.88,0.298c-4.76-2.612-9.605-5.159-14.483-7.653c-35.459-23.122-79.792-41.354-120.681-39.251      c-5.314-0.578-10.652-0.938-15.991-1.174c19.145-27.466,45.445-48.534,66.281-74.592c10.697-13.382,21.186-26.894,30.991-40.944      c8.941-12.812,15.51-27.154,27.745-37.335c1.377-1.147,1.137-2.663,0.216-3.696c0.013-0.018,0.028-0.039,0.045-0.057      C293.12,142.638,294.005,142.691,294.93,142.112z M154.249,295.296c-25.665-25.774-63.351-46.574-100.503-44.862      c-0.432-0.815-1.21-1.442-2.417-1.442h-3.847c16.447-26.918,36.773-51.285,54.284-77.508      c15.412-23.073,25.555-51.354,48.44-68.478c0.334,0.062,0.693,0.09,1.084,0.017c45.258-8.34,99.008,10.047,135.423,36.995      C243.244,192.49,206.817,251.265,154.249,295.296z M183.275,305.92c40.005,4.523,79.113,19.01,115.09,37.169      c5.024,3.089,9.906,6.386,14.683,9.8c-0.106,0.009-0.196,0.041-0.302,0.049c0.505,0.302,1.043,0.547,1.557,0.84      c2.616,1.899,5.159,3.875,7.693,5.868c-1.296,1.654-2.6,3.305-3.879,4.972c-0.644,0.008-1.32-0.208-1.936-0.754      c-0.086-0.077-0.188-0.143-0.273-0.221c-1.483-0.33-2.967-0.88-4.421-1.503c-2.474-1.239-4.936-2.511-7.385-3.822      c-0.407-0.232-0.843-0.489-1.227-0.701c-7.958-4.531-15.585-10.099-24.028-13.713c-0.44-0.191-0.774-0.444-1.019-0.729      c-0.726-0.31-1.423-0.685-2.144-1.002c-18.297-10.555-36.814-20.534-57.031-25.616c-0.024-0.008-0.049-0.017-0.073-0.024      c-14.699-4.059-30.074-5.771-44.797-9.739C176.947,306.352,180.109,306.05,183.275,305.92z M383.184,308.002      c-11.309,13.811-21.504,28.872-33.012,42.613c-1.524,1.862-3.094,3.676-4.675,5.484c-0.325,0.367-0.647,0.73-0.981,1.093      c-7.734,8.729-16.113,16.83-25.755,23.659c-1.019,0.722-1.972,0.628-2.73,0.159c-0.985,0.249-2.11,0.151-2.767-0.619      c-0.876-1.039-1.772-2.009-2.686-2.95c-0.44,0.439-0.97,0.688-1.516,0.778c-1.043-0.619-2.087-1.223-3.13-1.842      c-0.131-0.314-0.322-0.591-0.334-0.979c-0.009-0.053-0.013-0.105-0.021-0.163c-0.077-0.04-0.155-0.081-0.229-0.122      c-0.514,0.131-1.056,0.114-1.581-0.008c-1.707-1.007-3.423-2.014-5.135-3.02c-0.574-0.429-1.145-0.885-1.731-1.3      c-0.986-0.506-1.984-0.979-2.975-1.468c-22.582-13.13-45.5-25.664-68.854-37.344c-0.017-0.253-0.114-0.497-0.069-0.75      c-8.281-4.205-16.577-8.219-25.013-11.928c3.59,0.298,7.127,0.763,10.607,1.398c2.144,0.477,4.299,0.933,6.43,1.467      c11.207,2.796,21.402,7.946,31.565,13.211c4.283,1.622,8.517,3.383,12.73,5.204c18.542,10.221,36.531,21.997,55.456,30.534      c1.247,0.563,2.425,0.236,3.265-0.468c0.069,0.305,0.188,0.599,0.158,0.921c1.965-1.438,3.884-2.931,5.759-4.471      c19.629-18.591,33.248-42.25,49.426-63.877c8.852-10.754,17.608-21.577,26.109-32.567c0.583-0.705,1.129-1.406,1.716-2.107      c6.895-8.468,13.753-16.96,20.469-25.566c6.838-9.316,12.922-19.041,17.38-29.489c2.188-3.662,4.287-7.388,6.357-11.127      c0.021,0.024,0.024,0.049,0.049,0.071c2.519,2.585,4.809,5.379,7.237,8.048C432.251,243.962,408.734,276.804,383.184,308.002z"
   id="path120" />
                <path
   fill="#A5989A"
   d="M368.42,262.104c-8.024-16.52-27.018-26.17-43.261-32.716c-20.099-8.101-42.392-14.76-64.278-14.434      c-0.66,0.008-1.162,0.236-1.594,0.538c-1.23-0.538-2.82-0.44-3.842,0.904c-15.196,20.076-29.561,40.794-46.22,59.702      c-0.685,0.782-0.835,1.654-0.68,2.461c-0.188,1.569,0.701,3.358,2.747,3.488c39.239,2.552,80.566,17.637,107.82,46.798      c1.092,1.166,3.02,1.089,4.124,0c0.379-0.375,0.726-0.773,1.101-1.157c1.76,0.196,3.912-1.279,3.537-3.626      c-0.004-0.025-0.013-0.05-0.017-0.065c15.872-17.066,27.523-37.067,39.594-57.002c0.306-0.51,0.395-0.999,0.391-1.468      C368.656,264.688,369.067,263.434,368.42,262.104z M259.598,220.521c0.366,0.171,0.79,0.277,1.283,0.269      c17.8-0.269,35.605,4.581,52.334,10.261c8.093,2.749,17.233,6.294,25.677,10.948c-0.188,0.342-0.399,0.664-0.583,0.994      c-0.811-1.704-3.02-2.669-4.612-0.929c-1.349,1.475-2.274,3-3.012,4.56c-1.353-0.909-3.456-0.62-4.283,0.888      c-0.379-0.24-0.807-0.428-1.341-0.468c-8.997-0.685-16.182,2.542-20.938,7.987c0.106-2.917,0.017-5.839-0.554-8.761      c-0.058-0.293-0.188-0.538-0.326-0.766c0.859-0.46,1.504-1.235,1.397-2.347c-1.593-17.028-37.566-27.028-48.349-15.887      c-1.292,0.668-2.465,1.5-3.549,2.445C255.021,226.649,257.299,223.577,259.598,220.521z M337.318,272.993      c0.106,3.925-0.452,7.914-1.634,11.382c-0.933-0.33-2.009-0.302-2.963,0.477c-5.338,4.356-12.909,9.096-19.987,5.999      c-5.131-2.25-7.657-7.841-8.803-12.976c-3.219-14.393,6.504-26.113,21.129-24.996c0.049,0.004,0.082-0.017,0.131-0.017      c0.008,1.166,0.668,2.298,2.013,2.828c0.909,0.363,1.712,0.412,2.389,0.245c0.13,0.53,0.244,1.059,0.432,1.614      c0.566,1.654,2.07,2.103,3.415,1.85c1.564,2.185,2.637,4.972,3.26,8.021c0,0.138,0.045,0.261,0.065,0.399      c0.13,0.685,0.253,1.377,0.334,2.094C336.446,270.911,336.626,272.097,337.318,272.993z M300.301,285.463      c-0.229-0.146-0.432-0.302-0.722-0.387c-2.139-0.656-4.331-0.893-6.54-0.994c1.769-2.417,3.432-4.919,4.865-7.552      c0.099,0.954,0.221,1.924,0.399,2.894C298.688,281.461,299.396,283.499,300.301,285.463z M243.256,245.348      c-3.443,5.542-6.096,11.512-7.905,17.906c-1.353,3.704-2.217,7.596-2.482,11.729c-0.021,0.154-0.061,0.305-0.077,0.464      c-0.037,0.253,0.008,0.473,0.024,0.709c-0.033,0.921-0.159,1.813-0.123,2.763c-5.457-0.945-10.929-1.739-16.382-2.232      c10.481-12.217,20.135-25.078,29.732-37.996C244.968,240.833,244.075,243.082,243.256,245.348z M251.479,262.374      c1.214,3.655,3.366,7.065,6.243,10.09c-0.105,0.118-0.236,0.188-0.334,0.338c-2.237,3.443-6.696,4.075-11.129,4.193      C247.967,272.113,249.719,267.243,251.479,262.374z M274.463,291.389c-8.342-3.599-16.969-6.603-25.779-8.938      c5.204-0.42,10.098-1.658,13.367-6.259c0.79,0.563,1.512,1.174,2.375,1.683c3.619,2.119,7.661,3.113,11.704,3.154      C274.479,284.281,273.934,287.766,274.463,291.389z M266.574,272.37c-9.006-5.286-11.912-14.03-9.813-22.213      c3.154-2.298,6.308-4.593,9.422-6.944c0.118-0.049,0.22-0.114,0.334-0.163c0.563-0.229,0.945-0.599,1.255-1.011      c0.48-0.351,0.953-0.705,1.438-1.051c0.371-0.163,0.795-0.245,1.157-0.424c2.551-0.204,5.114-0.342,7.694-0.31      c3.509,1.271,6.932,2.861,10.452,4.181c1.936,1.736,3.612,3.675,4.855,6.031c0.362,0.676,0.868,1.039,1.414,1.247      c-0.11,1.271-0.244,2.531-0.473,3.765C290.73,268.792,281.79,281.29,266.574,272.37z M314.734,316.319      c-5.289-4.841-11.271-8.949-17.266-12.845c-4.707-3.064-9.656-5.774-14.709-8.301c0.208-0.11,0.416-0.199,0.604-0.362      c1.784-1.573,3.472-3.301,5.109-5.103c0.204,0.041,0.375,0.122,0.611,0.122c1.851,0.005,3.678,0.017,5.495,0.212      c-0.578,0.538-1.161,1.052-1.728,1.614c-2.271,2.258,0.146,5.249,2.841,4.874c3.101-0.433,5.974,0.424,8.871,1.296      c1.923,2.774,3.423,5.799,4.075,9.312c0.358,1.964,2.73,2.522,4.282,1.744c1.138-0.566,2.271-1.142,3.379-1.749      c2.054,4.349,3.77,8.848,4.931,13.505C319.608,320.427,317.726,319.058,314.734,316.319z M329.445,313.776      c-1.21,1.476-2.176,2.641-3.064,3.651c-1.336-4.801-3.19-9.45-5.358-13.937c0.338-1.027-0.053-2.249-0.705-3.081      c-0.855-1.092-1.895-2.037-2.999-2.909c3.618,0.017,7.147-0.921,10.465-2.552c0.102,0.502,0.204,0.995,0.302,1.492      c0.375,1.874,2.738,2.641,4.282,1.744c4.561-2.649,7.657-7.584,9.328-13.346c1.879,0.872,4.458,1.927,6.292,0.603      c0.31-0.228,0.546-0.501,0.774-0.77c0.514-0.18,1.006-0.375,1.463-0.628C343.835,294.314,337.176,304.388,329.445,313.776z       M362.413,264.049c-2.226,3.672-4.426,7.347-6.646,11.015c0.583-4.246-0.485-8.998-3.362-12.575      c-0.493-0.62-1.116-0.868-1.752-0.893c0.647-1.227,1.198-2.539,1.532-4.047c0.032-0.155,0.017-0.31,0.028-0.465      c0.566-1.548,0.917-3.251,1.039-5.098c3.798,3.464,7.05,7.363,9.422,11.781C362.592,263.873,362.486,263.926,362.413,264.049z"
   id="path122" />
            </g>
        </g>
    </g>
</g>
</svg>
