<?xml version="1.0" encoding="utf-8"?>
<!-- Generator: Adobe Illustrator 16.0.0, SVG Export Plug-In . SVG Version: 6.00 Build 0)  -->
<!DOCTYPE svg PUBLIC "-//W3C//DTD SVG 1.1//EN" "http://www.w3.org/Graphics/SVG/1.1/DTD/svg11.dtd">
<svg version="1.1" id="Layer_1" xmlns="http://www.w3.org/2000/svg" xmlns:xlink="http://www.w3.org/1999/xlink" x="0px" y="0px"
	 width="512px" height="512px" viewBox="0 0 512 512" enable-background="new 0 0 512 512" xml:space="preserve">
<g>
	<path
   fill="#EFEAEB"
   d="M421.351,423.375c-47.694-21.26-111.054-19.617-164.213-16.789c-58.314,3.102-120.031,10.51-173.455,29.308   c-10.521,3.704-11.035,18.053,0,21.618c18.362,5.934,37.654,9.169,57.287,10.693c38.265,4.107,78.14,3.818,115.667,3.016   c53.351-1.149,118.396-3.59,164.714-26.228C431.636,439.969,432.357,428.277,421.351,423.375z"
   id="path68" />
    <path
   fill="#FDBAC1"
   d="M191.941,209.836c0-1.2-0.627-1.97-1.443-2.396c0.069-3.038,0.017-6.111,0-9.118v-4.317   c0-0.224-0.077-0.389-0.114-0.587c0.004-0.031,0.008-0.055,0.016-0.089c0.538-3.572-4.703-5.223-5.558-1.528   c-0.286,1.259-0.611,2.506-0.913,3.761c-0.419,0.126-0.831,0.338-1.223,0.725c-0.88,0.882-1.76,1.779-2.624,2.688   c-0.085,0.074-0.175,0.104-0.253,0.192c-0.122,0.132-0.204,0.289-0.322,0.426c-1.683,1.817-3.26,3.729-4.446,5.913   c-0.196,0.359-0.302,0.722-0.334,1.082c-0.546-0.354-1.116-0.631-1.736-0.807c-0.045-0.098-0.114-0.173-0.155-0.275   c-0.151-0.34-0.363-0.593-0.599-0.805c-0.265-1.09-0.603-2.158-0.803-3.266c-0.204-4.405-0.509-8.804-1.084-13.187   c-0.469-3.558-5.803-3.826-5.758,0c0.016,1.518,0.077,3.044,0.159,4.57c-0.481,0.226-0.913,0.57-1.206,1.174   c-0.399,0.825-0.75,1.673-1.137,2.504c-0.102,0.13-0.224,0.216-0.301,0.375c-2.001,3.896-4.1,7.688-5.758,11.693   c-2.42-2.451-4.882-4.864-7.502-7.121c-1.047-1.487-2.147-2.955-3.264-4.414c-0.033-0.057-0.061-0.106-0.098-0.159   c0,0.002-0.008,0.004-0.008,0.008c-0.155-0.195-0.285-0.395-0.44-0.591c-0.09-0.122-0.208-0.167-0.31-0.261   c-0.13-0.448-0.245-0.9-0.387-1.347c-0.195-0.627-0.542-1.049-0.941-1.379c-0.163-0.499-0.31-1.002-0.498-1.5   c-1.279-3.439-6.438-2.131-5.554,1.528c0.143,0.613,0.257,1.232,0.403,1.846c-0.538,0.607-0.798,1.433-0.403,2.474   c0.611,1.602,1.284,3.172,1.968,4.739c0.094,0.446,0.196,0.891,0.293,1.337c-0.599,0.633-0.978,1.493-0.823,2.559   c0.754,5.025,1.068,10.037,1.207,15.068c-0.62,5.768-0.065,11.426,0.13,17.27c0.089,2.718,2.983,3.533,4.915,2.038   c2.339-1.813,4.702-3.419,7.151-4.796c0.44,0.754,1.186,1.32,2.327,1.32h7.865c1.068,0,1.793-0.501,2.25-1.182   c1.459-0.126,2.926-0.191,4.401-0.22c0.065-0.008,0.126,0.008,0.188-0.004c0.856-0.017,1.711-0.029,2.571-0.033   c1.219-0.004,2.025-0.591,2.437-1.394c0.624-0.029,1.251-0.041,1.878-0.045c0.571-0.008,1.076-0.191,1.508-0.473   c0.448,0.236,0.917,0.412,1.374,0.473c2.429,0.31,4.755,1.125,7.196,1.438c0.599,0.073,1.153-0.126,1.618-0.481   c0.855,3.354,6.129,1.826,5.477-1.724C191.843,225.73,191.941,217.746,191.941,209.836z"
   id="path70" />
    <path
   fill="#A5989A"
   d="M192.772,179.442c6.504-0.9,6.28-11.347-0.831-11.347c-6.259,0-7.176,8.107-2.894,10.681   c-0.383,0.222-0.758,0.457-1.035,0.819c-4.401,5.836-8.183,12.072-12.307,18.085c-2.282-7.61-4.173-15.27-5.456-23.153   c-0.082-0.495-0.302-0.827-0.534-1.131c5.062-2.076,4.328-11.06-2.241-11.06c-6.683,0-7.302,9.238-1.972,11.117   c-0.338,0.304-0.636,0.656-0.807,1.074c-3.395,8.36-6.015,17.014-9.458,25.345c-5.575-7.362-10.722-15.025-16.993-21.836   c3.109-3.132,1.854-9.941-3.875-9.941c-4.038,0-5.803,3.386-5.452,6.492c-0.542,1.66,0.563,3.078,1.805,4.063   c0.534,0.705,1.341,1.076,2.217,1.133c1.324,20.117,1.675,40.27,4.307,60.276c0.481,3.627,6.243,3.676,5.754,0   c-2.274-17.303-2.869-34.722-3.839-52.124c5.098,6.392,9.65,13.226,14.76,19.619c1.101,1.377,3.79,0.999,4.523-0.583   c3.191-6.899,5.615-14.087,8.167-21.233c1.451,6.438,3.228,12.783,5.281,19.105c0.823,2.543,3.777,2.653,5.261,0.689   c4.234-5.616,7.89-11.614,11.838-17.419c2.641,15.681,1.597,31.775,1.507,47.629c-0.016,3.712,5.738,3.708,5.762,0   c0.098-18.523,1.361-37.289-2.983-55.459C193.188,179.909,192.952,179.709,192.772,179.442z"
   id="path72" />
    <g
   id="g74">
        <path
   fill="#DDD7D8"
   d="M304.229,118c0.636-2.27,0.167-4.918-2.156-6.691c-4.205-3.207-10.929-1.689-15.656-0.882    c-2.388,0.408-4.743,0.952-7.095,1.526c-16.662,0.998-33.403,0.961-50.034,2.561c-0.057-0.053-0.118-0.092-0.175-0.145    c-2.433-2.329-7.499-2.351-9.039,1.164c-4.915,11.19-3.33,27.766,2.017,40.357c1.051,9.185,4.47,18.574,12.368,18.081    c0.774,0.74,1.605,1.453,2.567,2.097c2.258,1.51,4.735,1.793,7.16,1.383c-0.452,1.052-0.656,2.258-0.224,3.688    c0.106,0.355,0.265,0.638,0.392,0.964c-0.123,0.581-0.236,1.16-0.392,1.734c-0.48,1.795,0.074,3.753,1.239,5.202    c0.016,4.077,0.065,8.698-0.522,12.072c-0.065,0.389-0.049,0.746-0.049,1.108c-0.269,0.375-0.563,0.75-0.807,1.11    c-2.38,3.482,0.737,8.992,4.967,8.666c7.86-0.607,17.642,1.135,24.887-2.665c1.149,0.491,2.453,0.538,3.696,0.255    c2.896,0.026,5.611-1.795,5.244-5.507c-0.081-0.789-0.208-1.573-0.317-2.357c0.546-4.839-0.024-9.674-1.618-14.324    c0.664-1.196,0.998-2.569,0.876-3.896c0.791-1.575,0.962-3.441,0.48-5.004c12.963-1.567,23.945-7.107,22.169-21.196    c-0.037-0.277-0.18-0.473-0.245-0.729c1.011-5.159,1.207-10.993,1.052-16.908C305.284,132.055,304.812,124.418,304.229,118z"
   id="path76" />
        <path
   fill="#DDD7D8"
   d="M374.382,305.039c2.934-2.86,1.597-9.674-3.966-10.285c-8.104-0.893-16.32-1.075-24.21-3.297    c-4.743-1.34-6.964-3.798-7.645-6.951c9.878-4.483,19.414-6.948,30.416-7.743c3.269-0.236,5.575-2.449,5.754-5.758    c0.636-11.476-2.054-29.479-15.762-33.024c-8.306-2.147-16.691-0.229-25.135,0.22c-13.008,0.689-25.954,1.716-38.982,1.858    c-0.469,0.008-0.823,0.175-1.23,0.265c-2.608-1.145-5.266-2.176-8.036-2.938c-7.168-1.976-10.213,9.136-3.057,11.105    c30.213,8.325,47.034,44.373,46.871,73.615c-0.162,28.607-43.97,55.593-69.813,56.131c-4.026,0.081-6.169,3.586-5.55,7.286    c0.236,1.438,0.481,2.877,0.717,4.319c0.094,0.542,0.306,0.953,0.497,1.386c-11.577,0.366-22.959,1.165-33.953,2.485    c-22.764-2.046-49.402-2.091-71.387,2.164c-2.013,0.273-4.018,0.604-6.023,0.953c-5.322-0.68-10.628-1.479-15.909-2.555    c-5.754-1.178-8.786,5.518-6.194,9.096c-0.627,0.868-1.088,1.907-1.092,3.301v0.351c0,0.024,0.012,0.04,0.012,0.064    c0.314,5.51-0.232,11.134,0.913,16.578c0.232,1.1,0.794,1.972,1.536,2.645c8.77,21.618,66.252,9.955,82.459,9.499    c1.292-0.037,2.314-0.493,3.174-1.108c25.2,1.189,52.642,4.768,76.827-0.538c10.159,0.921,20.318,1.805,30.494,2.258    c13.411,0.599,48.167,5.518,56.398-9.939c1.153-2.164,0.864-4.315-0.22-5.929c0.493-0.514,0.994-0.979,1.479-1.541    c1.684-1.952,1.74-4.951,0.648-7.164c0.244-0.655,0.383-1.32,0.317-1.947c-0.477-4.54-0.953-9.092-1.434-13.636    c-0.236-11.264-1.288-22.486-1.32-33.66c0.9-9.404,1.988-18.794,3.268-28.179c0.261-1.862-0.289-3.411-1.206-4.625    c0.122-1.459,0.229-2.918,0.358-4.377c0.024-0.33,0.062-0.66,0.078-0.994c0.464-5.322,0.904-10.648,0.978-15.999    C375.474,307.064,375.054,305.928,374.382,305.039z"
   id="path78" />
        <path
   fill="#DDD7D8"
   d="M276.181,256.351c-23.317-17.894-49.659,1.427-62.536,22.486c-14.25,23.302-10.652,56.024,6.015,76.717    c6.985,8.681,19.128-3.626,12.209-12.208c-11.483-14.264-11.312-33.424-5.958-50.066c5.208-16.203,25.249-34.524,41.553-22.014    C276.303,278.047,284.889,263.034,276.181,256.351z"
   id="path80" />
        <path
   fill="#DDD7D8"
   d="M286.218,292.113c-0.024,0-0.054,0.004-0.078,0.004c-7.05-1.895-16.842,3.729-21.842,7.128    c-10.799,7.335-21.842,16.821-25.274,29.915c-0.497,1.902-0.362,3.602,0.163,5.065c-0.028,0.704-0.065,1.414-0.016,2.103    c-0.905,4.051,0.701,8.598,5.884,9.935c23.48,6.044,46.602-10.18,54.288-32.29C302.615,304.559,296.735,292.773,286.218,292.113z"
   id="path82" />
        <g
   id="g84">
            <path
   fill="#A5989A"
   d="M285.276,273.723c-6.011-3.777-12.714-5.501-19.479-5.611c-14.246-2.967-27.294,4.083-36.097,15.412     c-0.175-0.184-0.391-0.289-0.591-0.432c-1.471,2.566-2.917,5.143-4.405,7.701c-3.7,8.599-6.284,17.498-6.74,26.961     c0.428,2.673,1.182,5.338,2.437,7.959c5.11,10.705,13.342,20.615,24.642,25.146c22.996,9.234,45.881-1.043,56.053-23.211     C310.068,308.112,303.32,285.063,285.276,273.723z M241.575,341.369c-8.044-4.21-13.154-11.757-15.343-20.119     c0.175-0.366,0.273-0.799,0.249-1.308c-0.913-18.073,7.515-32.075,23.766-39.973c0.285-0.139,0.464-0.326,0.66-0.514     c18.778-3.455,41.94,6.146,44.646,27.177C298.988,333.357,263.548,352.864,241.575,341.369z"
   id="path86" />
            <path
   fill="#A5989A"
   d="M404.366,200.604c-8,8.042-15.763,16.535-21.321,26.49c-1.817,3.244,3.158,6.147,4.972,2.906     c5.33-9.546,12.747-17.613,20.416-25.325C411.057,202.04,406.982,197.969,404.366,200.604z"
   id="path88" />
            <path
   fill="#A5989A"
   d="M425.784,209.94c-10.86,4.35-20.819,10.616-30.196,17.562c-2.942,2.184-0.081,7.182,2.91,4.969     c8.924-6.614,18.46-12.832,28.818-16.982C430.715,214.129,429.231,208.557,425.784,209.94z"
   id="path90" />
            <path
   fill="#A5989A"
   d="M429.473,245.923c-9.255-2.299-18.538-4.267-28.114-4.422c-3.717-0.061-3.708,5.697,0,5.754     c9.071,0.146,17.82,2.042,26.586,4.217C431.547,252.365,433.079,246.811,429.473,245.923z"
   id="path92" />
            <path
   fill="#A5989A"
   d="M390.445,284.803c-1.223-1.279-2.466-2.277-3.762-3.081c-2.09-3.007-5.069-4.82-8.577-5.754     c1.613-10.432,1.842-20.929-3.269-30.546c-6.594-12.417-25.738-11.749-37.417-11.602c-40.551,0.505-81.151,0.114-121.73,0.464     c-0.033-25.65,27.327-18.814,44.72-18.02c17.213,0.785,46.162-8.955,50.376,15.207c0.636,3.653,6.186,2.101,5.554-1.528     c-2.975-17.046-15.872-20.381-30.184-20.502c0.008-0.116,0.057-0.199,0.057-0.324c-0.068-6.231-0.803-12.415-1.197-18.621     c0.276-0.416,0.48-0.9,0.48-1.53c-0.008-2.946-0.171-5.799-0.823-8.682c-0.021-0.098-0.081-0.151-0.105-0.241     c5.844-0.326,13.154-1.021,17.384-5.102c6.06-5.842,6.467-13.118,6.748-21.188c0.53-15.119-0.244-30.288-0.896-45.39     c-0.016-0.359-0.175-0.599-0.293-0.88c4.479-2.549,6.96-6.748,8.492-11.51c0.726-1.812,1.361-3.674,1.817-5.62     c1.084-4.065,1.483-8.513,1.349-13.075c0.013-5.457-0.509-10.895-1.21-15.828c-1.186-8.346-5.326-13.14-10.986-15.856     c-4.499-2.706-10.106-3.653-16.121-3.814c-13.333-0.356-27.319-0.12-41.105,0.43c-5.179-0.633-10.354-1.314-15.563-1.697     c-13.105-0.955-26.023,0.656-31.296,13.958c-0.188,0.475-0.286,1.043-0.453,1.544c-0.102,0.165-0.24,0.291-0.318,0.489     c-5.049,12.662-4.43,28.807,0.518,41.639c0.954,2.294,1.98,4.556,3.252,6.685c0.53,0.758,1.051,1.522,1.585,2.282     c1.284,0.695,2.555,1.412,3.875,1.997c1.047,0.64,2.091,1.29,3.24,1.793c0.436,0.523,0.999,0.952,1.822,1.062     c0.236,0.033,0.48,0.037,0.717,0.069c-0.513,0.457-0.815,1.149-0.717,2.091c2.893,26.846-8.256,62.953,25.188,67.597v4.369     c0,0.022,0.012,0.035,0.012,0.057c0.069,7.842,0.497,15.709-0.546,23.507c-16.361-0.161-31.174,3.046-31.133,24.654     c0,0.016,0.008,0.028,0.008,0.041c-6.309,0.069-12.625,0.093-18.933,0.211c-21.28,0.387-44.883-0.057-59.928,11.846     c-0.627,0.143-1.263,0.261-1.883,0.444c-4.393,1.275-6.178,4.845-6.043,8.395c-2.449,3.831-4.442,8.301-5.73,13.733     c-3.541,14.914-2.359,31.166-2.555,46.37c-0.326,24.959,3.594,49.72,2.983,74.699c-0.428,0.453-0.717,1.068-0.754,1.863     c-0.721,17.656-5.571,39.075,13.297,46.06c0.171,0.403,0.424,0.693,0.717,0.913c0.334-0.065,0.652-0.146,1.043-0.102     c0,0,0-0.004,0.008-0.004c0.823-0.311,1.589-0.074,2.229,0.375c12.71,2.966,26.732,1.271,39.581,0.525     c20.897-1.211,41.924-1.215,62.85-1.609c24.259-0.457,48.521-0.693,72.785-0.791c17.343-0.065,35.103,2.254,52.372,0.791     c22.992-1.948,19.854-33.848,14.096-49.802c-0.293-0.807-0.799-1.316-1.397-1.646c5.575-30.551,3.806-61.627,3.663-92.516     c4.401-1.104,8.391-2.71,11.521-4.78C391.424,288.287,391.773,286.196,390.445,284.803z M257.541,210.376     c-3.5-0.161-7.139-0.394-10.778-0.554c0.949-8.138,0.636-16.257,0.591-24.455v-3.117c10.587,0.308,21.23-1.119,31.81-1.856     c-0.113,0.432-0.162,0.895-0.04,1.42c0.114,0.503,0.139,1.001,0.212,1.502c-0.191,0.377-0.322,0.807-0.318,1.333     c0.106,8.181,1.349,16.288,1.442,24.469c0,0.151,0.065,0.261,0.086,0.401C272.496,209.819,264.351,210.686,257.541,210.376z      M217.076,99.053c0.212-0.9,0.257-1.878-0.155-3.013c-2.706-7.513-2.942-15.18-3.048-23.073     c-0.245-19.006,14.059-18.055,27.804-19.055c10.706-0.782,21.505,1.49,32.263,0.943c14.613-0.742,30.555-3.396,33.04,16.806     c1.166,9.493,1.639,24.416-12.991,26.133c-7.913,0.927-15.929,1.031-23.871,1.991C253.45,101.8,233.242,105.688,217.076,99.053z      M238.592,114.804c0.513,0.01,1.067,0.03,1.565,0.036c14.458,0.169,30.759-0.042,46.056-2.223v0.065     c0,1.55,1.02,2.416,2.188,2.669c0.159,6.343,0.709,11.088-7.013,13.022c-5.778,1.451-12.282,0.98-18.203,1.579     c-5.285,0.534-10.494,1.491-15.804,1.764c-10.64,0.542-8.896-9.586-8.667-16.157C238.731,115.27,238.645,115.046,238.592,114.804     z M222.015,149.916c-0.603-11.939,1.435-23.87,0.151-35.795c-0.045-0.428-0.273-0.709-0.464-1.021     c3.81,0.85,7.747,1.259,11.492,1.485c-0.114,0.297-0.224,0.603-0.232,0.974c-0.188,5.291-2.795,16.487,3.578,19.668     c8.305,4.141,17.865,1.541,26.647,0.483c8.912-1.074,18.211-0.082,26.39-4.344c6.06-3.154,4.613-11.789,4.556-17.245     c-0.012-1.264-0.705-2.058-1.585-2.461c3.26-0.607,6.472-1.288,9.568-2.135c0.848,17.881,3.684,38.322-0.416,55.783     c-3.113,13.269-39.585,10.695-49.813,11.131C231.836,177.291,222.993,169.542,222.015,149.916z M256.71,252.296     c33.228,2.812,59.382,31.854,62.683,64.468c2.999,29.597-30.849,44.459-54.826,47.055     c-70.246,7.604-80.613-106.208-10.236-112.064C255.063,252.015,255.838,252.223,256.71,252.296z M168.191,370.273     c1.671-31.736,5.42-63.425,0.872-95.088c0.293-10.99,0.53-21.98,0.566-32.967c0-0.583-0.171-1.039-0.412-1.438     c5.852-0.163,11.488-0.13,16.243-0.313c15.954-0.62,31.998-0.844,48.049-0.941c-28.31,11.728-47.902,41.35-45.987,72.85     c2.319,38.126,33.998,67.12,71.004,68.909c32.152,1.557,76.685-21.134,77.907-57.458c1.271-38.062-24.573-72.227-59.365-84.346     c7.637,0.021,15.272,0.045,22.881,0.045c15.444,0,30.967-0.184,46.407,0.069c10.615,0.175,21.626,2.542,25.733,13.671     c2.458,6.655,1.594,14.797,0.399,21.888c-7.245-0.253-15.559,1.883-22.579,4.327c-3.134,0.742-6.093,1.875-8.814,3.439     c-0.563,0.24-1.138,0.489-1.639,0.713c-0.717,0.322-1.096,0.812-1.304,1.341c-0.934,1.125-1.32,2.853,0,3.9     c7.954,6.312,22.046,8.138,34.435,6.341c0.179,30.082,1.964,60.429-3.513,90.169c-0.139,0.77,0.04,1.418,0.35,1.968     c-15.672,5.502-34.1,1.822-50.266,1.605c-21.063-0.281-42.051,0.823-63.171,0.069c-28.994-1.026-58.09-0.13-87.162,0.636     c0.033-0.212,0.098-0.391,0.082-0.636c-0.318-4.604-0.518-9.209-0.717-13.818V370.273z M161.712,241.146v5.392     c0,0.799,0.302,1.394,0.721,1.85v0.501c-1.389-1.793-3.533-3.04-6.475-3.073c-4.817-0.049-9.711-0.473-14.568-0.456     C147.433,242.752,154.556,241.664,161.712,241.146z M121.031,289.367c0.257-9.345,1.039-19.17,4.739-27.784     c1.875,1.907,4.633,2.901,8.012,1.915c7.042-2.041,14.955-0.484,22.176-0.407c2.942,0.028,5.086-1.174,6.475-2.934v46.04     c-0.623,22.38-0.994,44.76-0.098,67.132c-0.281,5.51-0.542,11.011-0.607,16.513c-12.714,0.317-25.424,0.583-38.118,0.611     C124.621,356.76,120.098,323.141,121.031,289.367z M373.672,416.852c-0.855,19.193-19.894,16.194-34.312,15.306     c-34.011-2.106-68.485-0.456-102.541,0.15c-28.619,0.51-57.291,2.421-85.898,2.511c-3.651,0.012-7.258-0.273-10.848-0.738     c0.481-0.497,0.835-1.112,0.771-1.87c-0.729-8.554,3.553-25.318-5.742-30.551c-1.296-0.729-2.515-0.358-3.326,0.448     c-1.104,0.139-2.119,0.782-2.347,1.988c-1.72,9.189-1.133,18.33-0.008,27.491c-5.938-2.824-6.96-8.566-7.449-15.331     c-0.481-6.691,0.183-13.366,0.627-20.041c46.252-0.045,92.638-2.877,138.87-1.234c21.761,0.774,43.514-0.86,65.217-0.077     c14.898,0.537,30.339,2.6,44.65-2.201C373.599,400.502,374.031,408.799,373.672,416.852z M346.035,287.036     c1.378-0.566,2.918-1.161,4.564-1.761c7.922-2.119,17.074-1.679,25.208-1.418c0.448,0.432,1.027,0.766,1.806,0.823     c1.793-0.032,3.333,0.42,4.755,1.101c0.147,0.224,0.302,0.432,0.429,0.676C372.589,290.748,355.995,291.637,346.035,287.036z"
   id="path94" />
            <path
   fill="#A5989A"
   d="M334.43,253.734c-14.85,0-14.85,23.028,0,23.028C349.287,276.763,349.287,253.734,334.43,253.734z"
   id="path96" />
        </g>
    </g>
</g>
</svg>
